<?xml version="1.0" encoding="utf-8"?>
<!-- Generator: Adobe Illustrator 23.0.1, SVG Export Plug-In . SVG Version: 6.00 Build 0)  -->
<svg version="1.1" id="Layer_1" xmlns="http://www.w3.org/2000/svg" xmlns:xlink="http://www.w3.org/1999/xlink" x="0px" y="0px"
	 viewBox="0 0 670 500" style="enable-background:new 0 0 670 500;" xml:space="preserve">
<style type="text/css">
	.st0{fill:#14739A;}
	.st1{fill:#CC742C;}
	.st2{fill:#020202;}
</style>
<g>
	<path class="st0" d="M558.5,49.4c0.3,0.2,0.6,0.4,1,0.6c-0.6,0.9-0.3,1.6,0.3,2.3c1.7,2,3.3,4.1,5.1,6c6.4,6.9,13,13.5,19.6,20
		c1.2,1.2,2.6,2.2,2.5,4.4c-0.1,0.1-0.2,0.3-0.4,0.4c0.1-0.1,0.3-0.2,0.4-0.3c0.7,0.7,1.4,1.3,2.2,2c-0.8,0.1-1.3,0.4-0.6,1.4
		c0.8,1.1,1.6,2.1,2.4,3.1c7,8.8,15.1,16.3,22,25.3c6.9,9.1,14.4,17.6,21.7,26.1c1.4,1.6,2.7,3.6,5.1,3.5c3.3-0.1,6.7,0.1,10,0.1
		c0.5,0,1.4,0.5,1.5-0.8c5.1,1,10.1,1,15.2,0.1c1.3-0.2,2.6-0.4,3.6,1c-3.9,5.5-8.6,9.9-13.1,14.6c-16.2,16.6-32,33.7-47.9,50.6
		c-0.8,0.8-1.6,1.5-2.3,2.4c-1.5,2-2.7,2.7-4.1-0.3c-1.1-2.3-3.4-2.3-5.2-0.1c-4,4.8-7.8,9.9-11.8,14.7c-3.8,4.6-7.6,9.2-11.4,13.8
		c-0.1-0.2-0.3-0.4-0.4-0.7c3.2-5.2,7-9.7,10.5-14.6c0.5-0.7,1.6-1.5,1-2.4c-0.8-1.1-1.6,0.3-2.3,0.9c-1.4,1.3-2.4,2.9-4.1,3.9l0,0
		c0.5-2.6,2.4-4,3.6-6c0.9-1.7,1.7-3-0.2-4.2c-0.2-0.1-0.3-0.3-0.4-0.5c-0.6-5.8-3.1-1.7-4.3-0.9c-6.4,4.6-11.5,10.9-16.9,16.9
		c-11.5,12.8-23,25.6-34.5,38.4c-0.5,0.5-0.8,1.2-1.6,1c0.2-1.3,0.9-2.1,1.6-3c10.8-13.3,21.6-26.6,32.5-39.9c2.6-3.1,5-6.4,7.5-9.5
		c1-1.3,1.7-2.6,0.9-4.4c9.4-10.4,18.7-20.8,28.1-31.1c4.3-4.8,8.6-9.6,12.9-14.3c0.5-0.6,0.9-1.4,1.7-1.5c0.2,0.3,0.5,0.5,0.7,0.8
		c-5,6.1-10,12.3-14.9,18.4c-2.5,3.1-1.7,7.1-2.5,10.6c2.1-1,3-3.1,4.3-4.7c7-8.6,14-17.4,21.1-26c1.5-1.8,0.6-3.2-0.2-4.6
		c-1.1-2.1-1.8,0.1-2.6,0.5c-0.3-0.3-0.5-0.6-0.8-0.8c-1-1.8-1-3.9-1-6c0-1.5-0.3-2.9-1.6-3.6c-1.5-0.8-2.1,0.7-3,1.7
		c-2.4,2.9-4.8,5.8-7.2,8.6c-0.6,0.7-1.1,1.8-2.6,1.8c0.4-5.4,0.7-10.8,1.3-16.1c0.3-2.5-0.3-3.2-2.4-3.3c-5.5-0.3-11,1.1-16.6,0.4
		c-1.8-0.2-2.6,0.9-3.1,2.9c-1.9,8.2-3.8,16.4-5.8,24.5c-1.2,5.1,2.8,11.1,7.3,10.9c1.3-0.1,2-1.4,3-2.2c0.7-0.5,1.4-1,2-0.3
		c0.8,1-0.2,1.5-0.6,2.1c-1.8,2.5-3.6,5-5.5,7.3c-2.6,3.3-6.1,4.5-9.7,5.6c-0.7,0.2-1.4,0.6-2.1,0.8c-0.6,0.2-1.4,0.5-1.9,0.2
		c-2.7-1.7-4.1-5.2-6.4-7.5c-1-1.1-0.1-2.9,0.1-4.4c0.1,0,0.2,0,0.2,0.1c-0.1,0-0.1,0-0.2-0.1c-5.2,7.1-10.3,14.2-15.5,21.2
		c-10.8,14.6-20.8,30-31.9,44.3c-1.9,2.4-3.5,5.3-5.8,7.3c2.7-4.8,5.4-9.6,8-14.4c10.1-18.8,20.1-37.5,30.2-56.3
		c4.8-8.9,9.5-17.9,14.2-26.8c0.2-0.2,0.4-0.4,0-0.6c-0.1,0-0.2,0.2-0.4,0.3c-1.7,0.8-3.3,1.7-5,2.5c-0.2-1,0.3-1.3,0.6-1.5
		c5.2-3.1,8.1-8.9,11.5-14.1c0.5-0.9,1-1.5,0.7-2.9c-1.1-5.9-2-12-3-17.9c-2-12.1-4-24.1-6.1-36.1c-0.1-0.7-0.4-1.5-0.8-2.1
		c-2.4-3.9-4.9-7.6-6.6-12c-1.3-3.3-3.3-1.5-4.8-1.2c-1.7,0.3-1.3,2.5-0.8,3.8c2.5,6.9-0.4,13.2-1.6,19.7c-0.9,4.9,0.6,9.5,1.3,14.1
		c0.1,0.8,0.7,1,1.3,0.6c2.4-2.1,2.5,0.3,2.9,2.1c0.8,4.8,1.7,9.6,2.4,14.4c0.4,2.3,1.3,3.8,3.1,5.1c4,2.8,7.8,5.9,11.8,8.9
		c-0.1,0.3-0.1,0.6-0.2,0.9c-3.8,0.2-7.6,0.9-11.4,0.6c-12.8-1.2-25.5,0-38.3-0.7c-1.2-0.1-2.4,0.3-3.5,0.9c-0.3,0-0.6,0-0.9,0
		c-4-1.7-8-1.8-11.9-0.2c-5.9-0.5-11.9-0.9-17.8-1.4c-0.8-4.2-0.1-7.8,2.7-10.8c3.1-3.4,3.2-5.9,1.5-10.4c-1.6-4.3-5.5-5-8-8.4
		c-1.7,9.7-3.3,18.9-4.9,28.1c-0.1,0.7-0.2,1.4,0.3,1.8c1.4,0.9,0.1,0.9-0.2,1.1c-2,1.4-3.8-0.7-5.8-0.4c-0.3,0.1-0.6,0.2-0.9,0.3
		c-4.4,0.1-8.8,0.1-13.1-0.7c-0.8,0.1-1.6,0.2-2.4,0.3c-1.4-1.1-2.6-0.8-3.8,0.4c-4.5-1.7-6.2-0.9-6.2,3.1c-0.1-1.3,0.7-3.5-0.9-3.5
		c-4.2-0.2-8.4-0.8-12.5,0.7c-0.7-1.2-1.8-0.8-2.8-0.7c-6.9,0.1-13.9,0.5-20.8,0.1c-6.5-0.4-12.9-0.7-19.4-1
		c-1.9-0.1-2.4-0.4-1.7-2.6c0.6-2.2-0.7-5-2.1-5.2c-2.6-0.2-7.4,6.5-7.1,9.9c-4.1,0.1-8.2,0.4-12.4,0.3c-2.7-0.1-5.3-0.1-7.3,2.4
		c0,0,0,0,0,0c0.4-2.2-0.6-2.6-2.2-2.3c-2.1,0.1-4.2-0.8-6.2,0.7c-3.1-1.5-6.3,0-9.5-0.3c1.2-1.9,2.3-3.8,3.5-5.7
		c1.3-0.4,2.2-1.7,3.2-2.6c1.8,0.1,2.9-0.9,3.1-3c1.2-1.5,2.4-2.9,3.6-4.4c1.9-0.1,3.6-0.5,3.1-3.5c0.6-0.5,1.3-1.1,1.9-1.6
		c0.9,0.1,1.5-0.7,2.1-1.4c9.7-11.4,19.6-22.5,29.8-33.3c8.5-9.2,16.8-18.6,25.5-27.6c4.1-4.2,7.2-9,8.8-15.1c0.3-1,0.6-2.1,0.9-3.1
		c0.7-2.5,1.9-3.6,4.2-2.3c2.3,1.3,4.2,0.6,6.1-1.4c1.6-1.8,3.5-3.2,5.2-4.8c0,0,0.1-0.1,0.1-0.1c0.2-0.4,0.5-0.8,0.7-1.2
		c0,0-0.1,0.1-0.1,0.1c0.6-0.5,1.1-1,1.7-1.5c0,0,0-0.1,0-0.1c0.5-0.4,1-0.7,1.5-1.1c0.3-0.1,0.7-0.2,1-0.4c0.9-0.7,2.4-1.1,2.2-2.6
		c-0.3-1.5-1.7-1.6-2.9-1.8c-2.3-0.4-4.5-0.9-6.7-1.4c-1.6-0.3-3.1-0.5-4.7-0.8c-2.5,0.2-4.8-0.7-7.2-1.3c-1-0.1-2-0.3-2.9-0.4
		c-6-0.9-12-2.3-18-3.3c-3.2-0.5-5,1.6-7.3,2.9c-1.3,0.8-2.3,1.3-3.8,0.6c-6.5-2.8-13.1-5.3-19.5-8.2c-8.8-4-17.5-8.1-26.6-11.1
		c-1.5-0.5-3-0.9-4.2-2.5c1-1.2,2.1-0.7,3.1-0.7c33.2,0.1,66.5,0.1,99.7,0.2c8,0,15.9-0.1,23.9,0.1c4.1,0.1,8.1,0.5,12.2,0.7
		c0.7,0,1.2,0.2,1.6,1c2.2,4.4,5.5,6.4,9.8,6.7c1.5,0.1,3.1,0.9,4.4,1.8c1.8,1.2,2,0.1,2.1-1.6c0-1.7,0.1-3.5,0-5.2
		c0-2.1,0.9-2.7,2.6-3c5.2-0.7,9.7,0.9,13.5,5c0.3,0.3,0.6,0.6,0.9,0.8c4.3,2.6,6.1,6.4,4.6,12.2c-0.7,2.8,0.2,4.5,2.9,5.4
		c3.7,1.2,7,4,10.9,4.6c1.7,1.5,3.4,2.6,5.6,1.6c1.2,2.6,3.3,3,5.4,3c2,0,3,0.3,2,3.1c-0.9,2.7-1.3,5.7-1.3,8.3c1.1-2,2.1-1.5,3,0.6
		c0.8,2.1,1.6,4.2,3.5,5.3c2.5-3.4,0.4-7.5,0.9-11.8c2.8,2.6,5.3,4.8,7.7,7C558.3,49.2,558.4,49.3,558.5,49.4z M520.8,95.8
		c-2.5-7-3.1-14.6-4.6-22c6.7,15.5,13.2,31.2,19.8,46.8c0.4,1.1,1,2.1,1.5,3.1c0.2,0.5,0.7,0.9,1.2,0.6c0.5-0.3,0.4-0.9,0.3-1.4
		c-0.2-0.6-0.4-1.2-0.7-1.8c-5.1-12.6-10.2-25.1-15.4-37.7c-3.1-7.6-6.3-15.3-9.4-22.9c-0.4-0.9-0.6-2.4-1.6-2.4
		c-0.9,0.1-1.2,1.5-1.6,2.4c-1,2.1-1.9,4.2-2.9,6.3c-0.3,0.5-1.1,1.8-1.3,0.7c-0.5-2-2.7-3.4-1.7-6c0.4-0.9,0.3-1.8-0.5-2.3
		c-0.9-0.5-1.3,0.3-1.6,1.2c-3.5,8.7-7.7,16.8-11.6,25.2c-1,2.1-0.9,3.4,1,4.8c6.6,4.8,13.1,9.7,19.7,14.6c0.6,0.4,1.2,1.6,2.1,0.7
		c1,1.3,1.8,2.8,3.6,2.4c2.4,3.6,5.9,5.5,9.4,7.4c1,0.5,1.9,1,3.1,1.7c0-2-0.6-3.7-1.3-5.3C525.7,106.7,523.3,101.3,520.8,95.8z
		 M464.6,69.9c3.4,3.5,6.8,5.3,9.8,7.8c1.3,1.2,2.6,1.1,3.9,0.3c3.6-2.2,7.1-4.6,10.7-6.9c1.2-0.7,1.2-1.8,0.8-3
		c-1-2.7-3.1-4.1-5.6-3.3c-2.2,0.7-4.5,1.1-6.8,1.3C473.1,66.5,469.4,68.9,464.6,69.9z M500.5,26.5c0-2.4,0-4.4,0-6.4
		c0-1.9-0.8-3.1-2.3-3.6c-0.4-0.1-0.9-0.4-1.3,0c-0.4,0.5-0.2,1,0,1.5C498.1,20.9,499.2,23.6,500.5,26.5z M583.9,81.1l0-0.2L584,81
		L583.9,81.1z"/>
	<path class="st0" d="M117.1,44.9c1.8-2.3,4-4.1,6.3-5.7c4.6-3.3,8.4-7.7,12.7-11.5c7-6.3,14.5-12,21.1-18.8
		c4.7-4.9,9.9-5.5,15.6-5.3c8.1,0.3,16.3,0.1,24.4,0.1c-0.2,0.4-0.3,0.4-0.4,0c1.2,0,2.4,0,3.5,0c-0.3,0.9,0.5,1.1,0.8,1.4
		c5.7,5.6,11.3,11.2,17,16.7c2.6,2.6,3.7,2.3,4.6-1.5c1.3-5.5,3.1-10.9,4-16.6c10.9-0.1,21.8-0.2,32.8-0.3c1.8,0,2.6,0.8,3.3,2.7
		c2.6,7.8,5.3,15.6,8,23.3c0.4,1.1,0.9,2-0.3,3.1c-1.3,1.3,0.2,2.4,0.8,3.3c7.5,11.9,15.1,23.7,22.5,35.7c3.1,5,6.6,9.6,9,15.1
		c0,0.1,0.1,0.1,0.1,0.1l-0.1,0.1c0,0,0.1-0.1,0.1-0.1c0.2,0.2,0.4,0.4,0.6,0.6c0.4,0.5,0.8,1,1.2,1.5c-1.6,2.7-2.9,1.4-3.9-0.6
		c-1.2-2.4-3-4.1-4.4-6.3c-0.5-0.8-1.3-2.2-2.2-1.6c-2.5,1.7-5.9,1.5-7.4,5c-3.2-4.6-6.6-9.2-9.1-14.7c2.1,1,3.9,1,5.8-0.4
		c1.1-0.8,2.3-0.2,3.5,0.2c0.8,0.3,1.7,0.8,2.3-0.2c0.6-0.9,0-1.9-0.4-2.7c-3.2-5.3-6.5-10.6-9.7-15.9c-3.3-5.3-6.7-10.4-9.9-15.7
		c-1-1.6-1.9-2.3-3.4-1.3c-2.7,1.8-4.8,0.6-7-1.5c-7.2-6.6-14.7-12.7-22.6-19C237.2,20,238,25,243,28c4.6,2.8,8.8,6.6,13.8,10.4
		c-3.9,1.6-7.1,3-10.4,4.4c-1.6,0-3.3-0.4-4.2,1.7c-0.5,1.1-0.2,2.4,0.6,3.3c3.6,4.2,7.2,8.4,11,12.4c3.6,4,6.9,8.3,10,12.9
		c3.2,4.7,3.5,10.9,6.2,15.8c0.3,0.4-0.2,1.4-0.3,2.2c-7-4.8-13.5-10.6-20.3-15.8c-3.9-3-7.7-6.1-11.5-9.1c-1.3-1.1-2.2-1.1-2.8,1.1
		c-1.5,5.7-2.9,11.5-4.7,17.1c-1.2,3.7,1.9,3.5,2.8,5.2c-3.7-1.2-3.7-1.2-4.8,3.1c-1.8,6.9-3.5,13.8-5.9,20.7
		c-0.5-5-1.2-10-1.4-15.1c-0.2-6-1.9-11.7-1.8-17.8c0-1.5-0.4-3.1-1.4-4.1c-2.6-2.5-2.8-5.4-1.2-8.7c0.4-0.9,1.3-2.3,0.2-3.2
		c-0.9-0.8-1.8,0.2-2.5,0.8c-1.8,1.4-4.1,2.1-4.9,4.9c-0.9-0.3-1.6,0.3-2.3,0.8c-8.6,5.9-16.7,12.7-25.6,18.1
		c-2.2,1.4-2.3,3.3-0.7,5.6c3,4.4,5.9,8.9,9.2,12.9c2.3,2.9,3.9,6.6,6.6,9.1c0.9,8.6,1.1,17.3,1.1,26c0,1.5-0.6,2.2-1.8,2.2
		c-2,0-4.1,0-6.1,0c0.3-0.8,0.7-2,0.1-2.4c-3.2-1.9-4.1-5.9-6.1-8.8c-0.5-0.7-0.7-2.3-2-1.7c-1.1,0.6-1,2-1,3.1
		c0.2,3.3,0.4,6.7,0.6,10c-11.2,0-22.4,0-33.5,0c0.6-3.1,0.2-5.8-2.1-8.4c-0.8,3-1.6,5.8-2.3,8.5c-1.9-0.6-0.9-2.1-0.6-3.1
		c2-6.4,2.4-12.6-0.2-19.1c-1.8-4.5-1.3-4.7-5-2c-9.1,6.6-18.2,13.1-27.4,19.7c-1.1,0.8-2.1,1.7-3.3,2.5c-0.7,0.5-1.5,1.3-2.3,0.5
		c-0.7-0.7-0.6-1.8-0.5-2.7c0.1-1.3,0.2-2.6,0.5-3.9c1.5-5.1,1.8-10.4,2.8-15.6c0.8-4.2-0.2-7.2-3.1-9.9
		c-7.4-6.8-14.5-13.9-21.7-20.8c-1.1-1.1-2.3-2.8-3.8-0.9c-1.4,1.8-3.9,3.2-2.5,6.7c1,2.4,2.2,4.8,2.8,8.3c-2.2-2.1-3.8-3.7-5.4-5.2
		c-0.6-0.5-1.2-1.2-2-1c-1.7,0.4-3.9,5.4-3.1,7.4c2.1,5.7,4.4,11.3,6.6,16.9c0.3,0.9,0.8,1.9,1.5,2.3c3.6,2.3,4.8,7,7.5,10.3
		c0.5,0.6,0.7,1.7-0.2,2.3c-0.8,0.5-1.5,0-1.9-0.8c-0.7-1.4-1.4-2.8-2-4.3c-2.2-5.6-2.3-5.6-5.8-0.9c-2.7,3.6-2.8,3.7-6.6,1.4
		c-4.7-2.8-9.4-5.7-14-8.7c-2-1.3-3.4-1.1-5.1,0.9c-2.8,3.1-5,6.8-8,9.7c-2.3,2.2-4.3,4.8-6.4,7.3c-0.4,0.4-1,1-0.6,1.6
		c0.2,0.3,0.8,0.4,1.2,0.4c5.7,0.1,11.4-0.1,17.1,0.3c2.3,0.1,4.5-0.5,6.6-0.1c3.8,0.6,7.5,1,11.3,1.2c10.3,0.4,20.5-0.3,30.8,0.4
		c1.2,0.1,2.5-0.2,3.2,1.4l0.1,0c0.2,0.3,0.5,0.7,0.7,1l0,0c0,0.2,0.1,0.4,0.1,0.7c0.4,0,0.4,0.3,0.4,0.6l-0.1-0.2l0.2-0.1
		c4.4,7.9,8,16.4,14.3,22.7c2.2,2.2,4.3,4.4,6.7,6.3c1.4,1.1,2.1,2.1,0.2,3.6c-2,1.6-1.8,3.6-0.2,5.5c0.7,0.8,1.5,1.6,2.4,2.1
		c2.4,1.4,4.8,2.7,6.5,5.3c1,1.6,2.5,2.5,4.4,2.1c2.4,4.4,4.8,8.9,7.3,13.3c-0.1,0.1-0.2,0.2-0.3,0.3c-5.4-5.4-10.8-10.7-16.2-16.1
		c-1,1.3-0.1,2.1,0.1,2.9c0.7,2.7,0,4-2.3,4.6c-8.7,2.4-17.5,4.5-26,7.6c-4.3,1.5-8.9,2.2-13.3,3.1c-1.4,0.3-2.4-0.8-3.3-1.9
		c-7.4-9.1-14.8-18.3-22.3-27.3c-4-4.9-8.2-9.5-14-11.6c-1.3-0.5-2.2-0.3-2.9,1c-0.8,1.5-1.5,3-2.3,4.4c-0.9,1.7-0.7,3.2,0.5,4.7
		c1.1,1.4,2.3,2.8,2.8,5c-1.1-0.9-2.1-1.8-3.2-2.6c-0.6-0.5-1.1-2-2-0.8c-0.6,0.8,0.2,1.6,0.7,2.2c2.3,3,4.6,6,6.9,9
		c4,5.3,8.1,10.7,12,16.2c-5.6-5-9.9-11.5-14.7-17.4c-6.2-7.5-12.2-15.2-18.3-22.8c-1.2-1.5-2.2-2.9-4.2-1.6c-1,0.6-1.7-0.3-2.4-1
		c-6.9-7.2-13.7-14.3-20.5-21.5c-1.1-1.1-2.9-2.2-0.3-4.3c36.1-30.4,72.2-60.9,108.3-91.3c0.7-0.6,1.6-1.2,2.3-1.7
		c0.1,0.8,0.7,0.5,1,0.9c-1.1,2.2-3.4,3.3-4.1,5.8c-3.1,1.9-5,5-6.6,8.4c-0.4,0.9-0.6,1.7,0.2,2.2c3.2,2.1,6,5.1,9.5,6.5
		c0.7,0.3,1.5,0.7,1.9-0.4c1.1-4.2,2.9-8.3,2.1-12.9c2.1-2,1.5-4.8,1.5-7.4C119.6,49.6,117.7,47.3,117.1,44.9z M224,87.9
		c4.8-12.2,8.5-23.7,11.3-35.7c-1.7,1.8-3.9,1.7-5.7,2.4c-3.8,1.5-8.6,10.2-8.1,15.6C221.9,75.9,223,81.4,224,87.9z M153.8,27.2
		c0.3,0.2,0.6,0.4,0.8,0.6c-1.1,2.2-2.3,4.3-3.3,6.5c-3.5,7.6-9.4,13.5-10.9,22.4c-0.2,1.1-1.4,2.4-0.2,3.1c1,0.6,1.7-1,2.2-1.9
		c1.6-2.9,2.9-6.2,4.8-8.7c5.5-6.9,7.5-15.8,11.1-23.9c0.2-0.5,0.4-1.1,0-1.5c-0.4-0.4-0.9-0.3-1.3,0.1c-0.9,0.8-1.9,1.3-3,1.7
		c-5.2,1.7-7.6,5.2-8.3,12.4C148.7,34.2,151.3,30.7,153.8,27.2z M290.9,73.5l0,0.2l0.2-0.1L290.9,73.5z"/>
	<path class="st1" d="M139.8,196.8c-1.9,0.4-3.3-0.5-4.4-2.1c-1.7-2.6-4.1-3.9-6.5-5.3c-0.9-0.5-1.7-1.3-2.4-2.1
		c-1.6-1.9-1.8-3.9,0.2-5.5c1.8-1.5,1.2-2.5-0.2-3.6c-2.4-1.9-4.5-4.2-6.7-6.3c-6.3-6.3-9.9-14.8-14.3-22.7c0.5,0.6,1,1.3,1.8,0.6
		c-0.1,0.7,0.2,0.8,0.6,0.7c0.1,0.6,0.1,1.3,0.2,1.9c0-0.1,0.1-0.1,0.1-0.2c0,0.1,0,0.1,0.1,0.2c-0.1,0-0.1-0.1-0.2-0.1
		c-0.1-0.6-0.1-1.2-0.2-1.8c-0.4,0-0.6-0.3-0.6-0.7c-1.1-0.8-2.1-1.8-1.7-3.3c0.5-1.5,1.9-0.9,3-0.9c3.1-0.1,6.3,0.1,9.4-0.1
		c1.9-0.1,3.3,0.6,4.5,2.3c12.1,16.2,24.3,32.3,36.4,48.5c4.5,6,8.8,12.1,13.2,18c0.5,0.6,1.4,2.4,1.9,1.3c1.1-2.5,1.5-0.2,2.1,0.2
		c0.5,0.3,0.7,1,1.1,1.5c3.8,4.6,8.1,8.6,10.1,14.9c0.5,1.5,1.4,3.3,3.2,4c0.5-1.5,0.2-3.1,0.2-4.5c-1-26.4-2-52.9-3-79.3
		c-0.3-7.3-0.2-7.3-6.4-7.4c-0.2-3.3-0.4-6.7-0.6-10c-0.1-1.2-0.1-2.6,1-3.1c1.2-0.7,1.5,0.9,2,1.7c2,2.9,2.9,7,6.1,8.8
		c0.7,0.4,0.2,1.6-0.1,2.4c-1.5,1.1-0.2,2,0.2,2.9c6.3,12.3,12.6,24.6,18.9,36.9c8.5,16.7,17.1,33.4,25.6,50.1
		c10.2,19.9,20.3,39.7,30.5,59.6c1,1.9,2,3.7,2.5,5.8c0.2,1.1,0.9,1.9,1.7,2.5c6.2,4.8,11.8,10.5,18.3,14.7c5,3.2,8.1,8.8,11.6,13.9
		c1.9,2.7,3.7,5.5,5.4,8.3c0.6,1.1,2.4,2.3,1.5,3.4c-1,1.2-2-0.9-2.8-1.7c-9.4-9.5-18.8-19.1-28.2-28.6c-1.1-1.1-2.5-3.5-3.4-2.6
		c-1.3,1.2,0.4,3.3,0.9,4.9c7.3,21.3,14.7,42.6,22,63.9c0.3,0.8,0.8,1.5,0.6,2.5c-1.5-0.9-2.6-2.4-3.7-3.8
		c-4.4-5.4-8.8-10.8-13.3-16.2l0,0c-0.1-0.2-0.2-0.3-0.4-0.4c-7.8-9.3-15.4-18.8-23-28.2c-12.5-15.4-25.1-30.8-37.6-46.3
		c-8.1-10-16.3-19.9-24.4-29.9c-18.5-22.7-36.9-45.5-55.5-68.2c-1.1-1.4-1.8-3.7-4-3.4c0.1-0.2,0.3-0.5,0.4-0.7
		c-0.1-0.1-0.1-0.1-0.2-0.2c-0.1,0.3-0.1,0.6-0.2,0.9c2.1,3,3.8,6.3,5.2,9.8C138.8,195.2,139.3,196,139.8,196.8z M116.5,165.9
		c-0.1,0-0.2,0-0.2-0.1C116.3,165.8,116.4,165.9,116.5,165.9c0.3,1.6,1.5,1.6,2.6,1.8C118.2,167.1,117.3,166.5,116.5,165.9z
		 M114.9,164.9l0.2,0.1l0-0.2L114.9,164.9z M113.9,164.4l0.1-0.2l-0.2,0L113.9,164.4z"/>
	<path class="st1" d="M440.3,149.1c0-3.9,1.6-4.8,6.2-3.1c-2,11.4-4,22.7-6,34.1c1.4-3.1,2.1-6.5,3-9.7c2.4-8.2,5.4-16.2,6.8-24.8
		c0.8-0.1,1.6-0.2,2.4-0.3c0.1,1.1,1,2.4,0,3.4c-1.3,1.2-1.5,2.9-1.5,4.4c0.2,5-1.9,9.4-2.4,14.1c-0.4,3.1-0.7,6.2-2,9
		c-1.5,3.2-2.1,6.7-3.6,9.9c-1.1,2.2-0.2,4.7,0.3,7.7c7.6-16.3,15-32.1,22.4-47.8c0.3-0.1,0.6-0.2,0.9-0.3c0.8,1.4,0.5,2.7-0.1,3.9
		c-5.2,10.1-9.3,20.9-13.4,31.6c-5.7,15-11.3,30-17.2,44.8c-2.7,6.7-5.2,13.6-7.8,20.4c9.8-19,19.3-38.1,28.7-57.3
		c6.7-13.6,13.5-27.3,20.2-40.9c0.9-1.8,1.7-3.7,3.9-3.6c5.9,0.5,11.9,0.9,17.8,1.4c-8.2,15-16.4,30.1-24.5,45.1
		c-6.8,12.6-13.4,25.3-20.5,37.7c-5,8.8-10.4,17.2-15.2,26.1c-7.7,14.5-15.5,28.9-23.3,43.3c-10.1,18.7-20.3,37.4-30.5,56.1
		c-0.5,0.8-0.7,2.2-2,1.6l0,0c4.3-12.7,10.1-24.9,9.9-39.2c1.7,0.3,1.5,2,2.7,2.5c1.9-6.4,5.6-12.1,2.9-19.9
		c-2-5.9-2.8-12.4-4.1-18.6c2.4-10.7,2.5-21.8,4.6-32.5c0.4-1.9,0.3-3.9,0.5-5.8c0.2-2.4-1.8-2.8-2.9-3.2c-1.1-0.4-0.9,1.5-1.1,2.5
		c-0.6,3.1-1.2,6.1-1.7,9.2c-0.6,3.9-3.1,7-3.2,11.1c-4-18.2-8-36.4-12-54.6c-2.9-13.4-5.7-26.7-8.7-40.6c4.9,4.3,9.4,8.3,14.2,12.4
		c0.5-1.6,0.1-2.8-0.1-4c-1.2-8.5-2.6-16.9-3.7-25.4c-0.4-2.8-1.3-3.7-3.6-3.2c-1.3,0.3-2.6,0.2-3.9,0.3c-0.3-3.4,4.5-10.2,7.1-9.9
		c1.5,0.1,2.8,3,2.1,5.2c-0.6,2.2-0.1,2.6,1.7,2.6c6.5,0.2,12.9,0.5,19.4,1c6.9,0.5,13.9,0,20.8-0.1c1,0,2.1-0.5,2.8,0.8
		c-0.1,3.1-1.1,6.1-0.7,9.3c-2,16.5-3.9,33.1-5.9,49.6c-0.2,1.7-0.2,3.5-1.2,4.9c-1.1-0.9-2.3-1.8-3.4-2.7c-0.5-0.4-1.1-0.9-1.6-1.3
		c-2.3-2-2.7-1.8-2.9,1.4c-0.5,6.3-1.4,12.5-1.2,18.8c-0.5,0.6-0.5,1.3-0.6,2.1c-0.8,9.4-1.5,18.9-2.3,28.3
		c-0.5,6.4-1,12.8-1.7,19.2c-0.6,5.2-0.9,10.4-1.1,16.1c1.4-1.2,1.7-2.4,2.1-3.6c7-22.5,16.1-44,20.8-67.5c0.2-0.8,0.3-2.1,1.1-2
		c3,0.4,2.9-2.4,3.4-4.4c1-4.3,1.6-8.7,2.7-13c1.9-7.5,4.1-14.8,4.5-22.7C439.3,168.9,439.9,159,440.3,149.1z M432.9,216.9
		c0.1-0.4,0.2-0.7,0.3-1.1c-0.1,0-0.1,0-0.2,0C432.9,216.2,432.9,216.6,432.9,216.9c0,0.1-0.1,0.1-0.2,0.1
		C432.7,217,432.8,216.9,432.9,216.9z M438.6,204.9c-0.3,0-0.6-0.1-0.9-0.1c0,0.2,0,0.3,0,0.5C438,205.1,438.3,205,438.6,204.9
		c0-0.2-0.1-0.4-0.1-0.6C438.6,204.5,438.6,204.7,438.6,204.9z M434.4,212.9c0.5-1.1,1.1-2,1-3.3c0.8-0.1,1.1-0.7,1.2-1.7
		c-1,0.3-1,1.1-1.2,1.8C434.8,210.6,434.4,211.6,434.4,212.9c0,0.1-0.1,0.2-0.1,0.3C434.4,213.1,434.4,213,434.4,212.9z
		 M439.6,202.1c0.3-1,0.6-1.9,1.2-3.7C439.2,199.9,439.3,200.9,439.6,202.1l-0.1-0.1L439.6,202.1z M400.3,237.6
		c0.4-1.2,1.1-2.4-0.1-3.8C399.2,235.3,399.1,236.5,400.3,237.6z M442.6,195.1c0-0.2,0-0.4,0-0.5c-0.1,0-0.2,0-0.2,0
		c0,0.2,0,0.4,0,0.5C442.4,195.1,442.5,195.1,442.6,195.1z M441.5,197.2c0-0.1-0.1-0.1-0.1-0.2c-0.1,0.1-0.1,0.1-0.1,0.2
		c0,0.1,0.1,0.1,0.1,0.2C441.4,197.3,441.5,197.2,441.5,197.2z"/>
	<path class="st1" d="M438.7,35.3c-0.6,0.5-1.1,1-1.7,1.5c0,0,0.1-0.1,0.1-0.1c-0.2,0.4-0.5,0.8-0.7,1.2c0,0-0.1,0.1-0.1,0.1
		c-1.8,1.6-3.6,3-5.2,4.8c-1.8,2-3.8,2.7-6.1,1.4c-2.2-1.3-3.5-0.2-4.2,2.3c-0.3,1-0.6,2-0.9,3.1c-1.6,6.1-4.7,10.8-8.8,15.1
		c-8.7,9-17,18.4-25.5,27.6c-10.1,10.9-20.1,22-29.8,33.3c-0.6,0.7-1.2,1.4-2.1,1.4c-3.7-6.3-6.1-13.4-9.2-20.1
		c-2.9-6.3-5.6-12.8-8.3-19.2c-0.4-1-1.1-2-0.9-3.8c5.6,2.8,9.8,8.2,15.4,10.8c-2.6-2.3-4.1-5.9-6.6-8c-2.3-2-3.6-4.5-4.7-7.4
		c-0.7-1.8,0.4-1.3,1.7-1.4c-3.5-3.6-6.6-6.8-9.8-10c-4.1-4.2-8.2-8.4-12.2-12.6c-2.4-2.4-4.6-5-7.1-7.3c-3.1-2.8-5.2-6.3-6.7-10.6
		c-1.2-3.5-2.9-6.8-4.3-10.2c0.3,0.2,0.7,0.4,0.9,0.7c2,2.4,3.7,0.9,5.2-0.7c1.8-1.8,0.5-3.5-0.3-5.1c-0.9-1.6-1.3-3.3-1.1-5.2
		l0.2-0.1c0,0,0.1,0.1,0.1,0.1c0.2-0.1,0.3-0.3,0.5-0.4c5.9-2.7,5.9-2.7,9,3.9c6,12.8,12.1,25.7,18.2,38.4c3,6.1,5.7,12.6,9.6,18.9
		c-1-6.5-3-11.9-4.5-17.4c-4.3-16-8.8-31.9-13-47.9c-0.7-2.7-2.6-4.4-3.4-7c-0.5-1.7-0.2-2.4,1.2-2.2c2.6,0.4,5.6-1.4,7.9,1.5
		c0.3,0.3,1.2,0.3,1.6,0c2.3-1.9,4.1-0.2,6.2,0.7c8.4,3.9,16.8,7.5,25.2,11.2c7.8,3.4,15.6,6.7,23.4,10.2c2.5,1.1,4.6,1.6,6.9-0.6
		c3.5-3.4,7.4-4.9,12.1-3.4c4,1.2,8.2,1.3,12.2,2.7c1,0.1,2,0.3,2.9,0.4c-0.1,0-0.1-0.1-0.2-0.1c0.2,0,0.3-0.1,0.5-0.1
		c2.3,0.3,4.7,0.5,6.9,1.5c1.6,0.3,3.1,0.5,4.7,0.8c1.6,0.2,3.3,0.5,4.9,0.8c1.3,0.2,3.1-0.1,3.7,1.6c0.7,1.9-1.5,2.4-2.1,3.8
		C439.7,34.5,439.2,34.8,438.7,35.3c0-0.1,0.1-0.1,0.1-0.1S438.7,35.3,438.7,35.3z M366.1,96.5c-0.9,0-1,0.9-1.2,1.6
		c-1.1,1.3-2.3,2.6-3.2,4c-0.7,1.2-0.6,2.5,0.5,3.4c1.4,1.1,1.5-0.6,2-1.3c2.5-3.8,4.8-7.6,7.3-11.4c7.3-10.8,14.1-22.1,21-33.2
		c1.3-2,2.6-4.1,2.9-6.8c0.1-0.9,0.8-2.1-0.1-2.6c-1-0.5-1.5,0.6-2.1,1.6c-2.3,4.1-4.7,8.2-7.2,12.2c-6.3,10.1-12.7,20.2-19,30.3
		C366.5,95,365.7,95.5,366.1,96.5L366.1,96.5z M343,65.7c4.7-8.8,4.9-9.9,2.2-17.3c-1.1-3-2.6-5.8-4.1-8.5c-1.3-2.3-1.9-5.1-4.1-6.9
		C338.6,43.9,339.7,54.8,343,65.7z"/>
	<path class="st1" d="M344.4,215.3c1.9,11.3,3.6,22.7,5.1,34.2c0.9,6.8,3.3,13.3,3.9,20.3c0.4,4.8,1.4,9.5,0.7,14.5
		c-0.5,3.5,0,7.3-0.1,10.9c-1,43.6-3.6,87-5.2,130.6c-0.1,3.4-0.4,6.7-0.3,11c4.4-34.3,8.5-67.8,13.3-101.9c1.2,2,1,3.5,0.9,5
		c-1.3,19.2-2.5,38.5-3.8,57.7c-0.8,11.7-1.4,23.5-2.3,35.2c-0.5,6.1-3.3,11.3-4.9,17.1c-0.4,1.6-1,3-1.5,4.6
		c-0.2,0.8-1,1.6-0.3,2.4c0.7,0.8,1.4-0.1,2-0.5c5.1-3,10.2-6.1,15.3-9.2c1.1-0.7,2.3-1.3,4.1-2.4c-4.6,8-8.9,15.4-13.1,22.7
		c-3.6,6.3-7.5,12.5-10.9,18.9c-3,5.6-7.4,9.4-11.5,13.7c1.3-4.3,1.4-8.8,1.5-13.3c0.8-28.4,1.7-56.9,2.6-85.9
		c-1.4,2.6-2.6,4.7-3.8,6.7c-0.2-0.1-0.4-0.1-0.7-0.2c0-6.7-0.1-13.4,0-20.1c0.7-34.1,0.3-68.2,0.4-102.3c0.1-14.8,0.1-29.7,0-44.5
		c0-2.6,0.7-4.9,1.5-7.2C339.8,227.3,342.1,221.3,344.4,215.3z"/>
	<path class="st0" d="M229.3,145.2c-0.8,2.9-0.6,5.7,0.1,8.6c0.3,1.3,0.6,2.5,0.5,3.8c-0.1,2-0.5,3.8,2,4.3c1,0.2,0.8,1.8,0.8,2.9
		c0,0.8-0.6,1.9,0.3,2.4c1,0.6,1.5-0.5,2.1-1.1c0.9-0.9,1.7-2,2.6-2.9c1.3-1.4,1.9-2.4,0.1-4.1c-1.7-1.6-0.7-4.3-1.2-6.5
		c-1.5-7.7-1.3-7.5,5.4-7.3c6.8,0.2,13.7,0.1,20.7,0.1c-4.2-5.3-8.9-9.9-12-15.9c-1.4-2.7-1.3-6.9-3.4-9c-2.3-2.3-3-5.4-4.6-7.9
		c-0.3-0.4-0.6-0.8-0.3-1.8c5.1,1.7,9.5,4.9,13.5,8.8c2.4,2.3,4.6,4.9,7,7.4c0.6,0.6,1.1,2,2,1.2c0.8-0.7-0.2-1.8-0.3-2.7
		c-0.2-1.5-1.7-2.4-1.1-4.2l-0.1,0c9.8,5.3,19.5,10.8,29.4,15.9c4.9,2.6,9.4,5.8,13.7,9.6c-1.6,0.6-3.3,0.7-4.9,0.7
		c-8.6-0.1-17.1-0.1-25.7-0.1c-2.6,0-3.1,0.8-2.2,3.5c2.8,8.1,5.3,16.3,10.2,23.3c3.5,5,5.1,5.8,9.8,2.2c1.4,2.4,2.9,5.2,2.2,8
		c-0.6,2.4,0.7,1.5,1.3,1.9l0,0c-0.3,1.3-1.4,1.7-2.2,2.4c-2.9,2.7-5.7,5.1-4.8,10.5c0.9,5.2,1,10.5,1.5,15.8
		c-1.1,1.7-0.1,4.2-1.8,6.2c-0.7-2.6-0.5-4.9-0.7-7c-0.1-1.3,0.1-2.9-1.6-3.2c-1.7-4.5-0.9-9.4-1.4-14.2c-0.1-0.8,0.6-1.3,1-1.9
		c0.5-0.6,1.5-1.2,0.8-2.1c-0.9-1.1-1.4,0.4-2,0.9c-1,0.8-1.8,1.9-2.7,2.7c-0.6,0.6-1.2,1.6-2.1,0.9c-0.9-0.6-0.6-1.5-0.5-2.6
		c0.6-3.9-2.4-11.9-4.9-13.4c-1.1-0.7-2.2-1.1-3.3,0.1c-4.9,5.5-8.8,12-13.1,18.1c-0.7,1-0.3,2.1,0.1,3.1c1.2,3.1,2.5,6.1,3.6,9.2
		c0.4,1.1,1.5,2.9-0.3,3.6c-1.4,0.5-2.1-0.9-2.5-2.4c-0.7-2.5-1.8-4.7-2.9-7c-0.8-1.9-1.6-1.3-2.6-0.4c-4.5,4.3-5.7,4-8.5-2.1
		c-1.2-2.6-2.6-5-4-7.5c-1-1.8-1.7-3.7-1.7-5.8c0-1.2-0.1-2.1-1.1-2.7c-1.1-0.6-1.2-1.5-0.5-2.7c0.9-1.6,0.1-2.2-1.1-2.3
		c-2.1-0.2-3.9,0-5.2,2.6c-1.4,2.9-2.5,2.5-4-0.2c-4.6-8.2-6.5-17.7-9.7-26.6c-1.3-3.6-2.6-7.2-3.9-10.8c-0.8-2.1-0.3-2.8,1.6-2.5
		c1.7,0.2,3.3,0.1,5-0.4C224.1,144.7,226.7,144.9,229.3,145.2z"/>
	<path class="st1" d="M510.8,146.1c0.3,0,0.6,0,0.9,0c1,1.3,0,2.2-0.4,3.2c-3.7,7.4-8,14.4-11.2,22.1c-0.7,1.6-1,3.2-1.5,4.8
		c-0.7,2.4-0.8,5.5-3.2,6.9c-0.7,0.4-1.1,1.4-1,2.2c0.1,3.6-1.7,6.4-3,9.3c-1.4,3.1-1.4,6.7-3.1,9.7c-4.4,7.7-7.9,16.2-12,24.2
		c-4.7,9.2-10.5,17.6-14.7,27.2c-3,6.8-7,13-10.6,19.5c-0.2,0.5-0.7,0.9-0.7,1.4c-0.2,1.5-2.4,2.7-1.1,4.3c1.2,1.5,2.3-0.6,3.4-1.1
		c0.6-0.3,1.3-0.6,1.7,0.2c0.5,0.8,0.4,1.8-0.2,2.4c-1.6,1.8-2.6,4.2-4.4,5.9c-2.3,2.2-3.9,5.4-6,7.6c-3.6,3.6-6.1,8.4-9.7,11.9
		c-4.7,4.5-8.1,10.4-12.1,15.6c-3.7,4.7-7.3,9.6-11.2,14c-9.5,10.7-16.6,23.3-22.4,37c-2.3,5.4-4.9,10.5-7.2,15.8
		c-1.1,2.4-3.2,3.3-4.8,4.8c-1.6,1.5-3.5,2.7-5.3,4c-0.5,0.4-1.2,0.8-1.8,0.2c-0.5-0.5-0.3-1.2-0.1-1.8c3.6-10.2,6.6-20.7,11-30.4
		c3.9-8.6,9.3-16.2,13.9-24.3c6-10.6,12-21.2,18-31.8c0.6-1,0.8-2.4,2.9-2.1c-10.9,20.4-21.8,40.8-32.7,61.3
		c0.2,0.1,0.3,0.3,0.5,0.4c1.9-3.1,4.1-6,5.7-9.3c3.6-7.2,7.8-14,11.7-21c13.4-23.8,26.9-47.5,40.4-71.2
		c15.3-26.9,30.7-53.7,46-80.5c7.6-13.4,15.2-26.8,22.8-40.2C509.4,147,510,146.4,510.8,146.1z M381.6,371.4
		c-1.6,1.2-1.8,2.5-2.7,4.4C380.5,374.6,381,373.4,381.6,371.4z"/>
	<path class="st1" d="M287.5,210.7c1.6,0.3,1.4,1.9,1.6,3.2c0.2,2.2,0,4.4,0.7,7c1.7-2,0.7-4.5,1.8-6.2c0.5,4.9,1.6,9.7,0.8,14.7
		c-1.5-1-2.2-0.1-2.6,1.5c-0.5,2.3-0.3,4.5-0.2,6.8c0.8,20.7,1.5,41.3,2.2,62c0.1,2.5,0.6,5.2-0.7,7.6
		c-9.5-10.1-18.7-20.5-28.5-30.2c-4.3-4.2-6.3-9.5-8.2-15.1c-2.4-7.1-4.8-14.1-7.5-21c-0.7-1.7-1.1-3.2,0.5-4.9
		c1.4-1.5,0.5-2.5-1.2-2.4c-0.7,0-1.4,0-1.6-0.9c-0.2-1,0.5-1.2,1.1-1.6c2.7-1.6,5.3-3.3,8.5-5.2c-1,1.8-2.1,2.2-3,2.9
		c-0.5,0.4-0.9,0.8-0.7,1.6c0.2,0.7,0.8,0.9,1.4,0.8c2.2-0.3,4.5-0.4,6.5-1.7c9.6-6,19.2-12.1,28.8-18.2
		C287.3,211.4,287.4,211,287.5,210.7z"/>
	<path class="st0" d="M291.1,307.5c1.3-2.4,0.8-5.1,0.7-7.6c-0.7-20.7-1.5-41.3-2.2-62c-0.1-2.3-0.2-4.6,0.2-6.8
		c0.4-1.7,1.1-2.6,2.6-1.6c0.2,1.9,0.4,3.9,0.6,5.8c0.1,2.1,2.1,1.4,2.8,2.6c0.2,0.3,0.7-0.1,0.7-0.6c0-3,2.3-3.3,3.9-4.3
		c3.4-2.1,6.9-4.1,10.4-6.2c3.4-2.1,6.4-9.2,5.9-13.9c0.3-3,0.9-5.9,2.3-8.5c0.3-0.4,0.9-0.7,1-1.1c1.5-6.3,3.9-12.2,4.6-18.8
		c1.2-2.8,1.3-6,2.3-8.9c0.2-0.6,0.1-1.3-0.5-1.7c-0.6-0.3-1.1,0-1.5,0.4c-3,2.9-6.5,5.5-6.6,10.8c-3.4,2.3-7.4,2.2-11.1,3.4
		c-2,0.7-3-0.2-2.8-2.8c0.1-0.7,0.2-1.7-0.4-2.1c-2.2-1.5-0.6-2.3,0.3-3.2c4.2-4.3,8.6-8.2,13.3-11.7c1.3-1,2.1-1.8,0.1-3.1
		c-1.4-0.9-2.6-2.4-3.9-3.6c3.1-4,7.3-5.6,11.3-8c1.1-0.6,2.3-1.3,2.2-3c-0.2-1.8-1.4-2.8-2.7-3.3c-1.1-0.4-2.3-0.6-3.5-0.9
		c4-0.1,8.1,0.9,11.9-1.3l0-0.1c-0.2,0.7,0,0.9,0.6,0.7l0,0c-0.5,0.8,0,0.9,0.5,1c0.3,0.1,0.5,0.3,0.8,0.4c-0.4,2.7,0.9,5.1,1,7.8
		c-1-0.2-1,0.6-1.1,1.4c-0.5,2.2-0.7,4.5-0.7,6.8c-1.4,2.4-1.3,5.3-1.6,8c-1,8.2-3.6,16-4,24.2c-0.1,0.4-0.3,0.8-0.4,1.2
		c0,0,0.1-0.1,0.1-0.1c-0.2,0.2-0.5,0.5-0.7,0.7c-1,0.1-0.3,0.7-0.2,1.1c-0.1,0.3-0.2,0.5-0.3,0.8c-3,5.6-4.3,11.8-5,18.3l0,0
		c-0.5,0.7-0.6,1.5-0.6,2.3l0-0.1c-0.1,0.2-0.1,0.4-0.2,0.6c-3.9,15.4-7.7,30.8-11.7,46.1c-1.3,5.1-3.2,9.9-1.6,15.4
		c-0.4-0.7-0.7-1.5-1.5-3.1c-4.1,13.6-7.3,26.9-10.9,40.6c-1.2-2.3-1.3-4-1.4-5.8C293.5,311.4,293.3,308.9,291.1,307.5z"/>
	<path class="st1" d="M328.9,479.9c-1.6-0.2-1.7-1.4-2-2.4c-2-6.9-3.8-13.8-5.8-20.7c-0.7-2.6-1.4-5.2-2.4-7.7
		c-2.7-7-2.2-14.4-2.1-21.8c0-11.7-0.2-23.3,0.2-35c0.5-14.8,0.7-29.6,1.9-44.3c0.6-7.4,0.6-14.8,1.4-22.1
		c0.7-5.9,0.1-11.9,1.2-17.5c2.2-11.8,2.5-23.7,3.1-35.6c0.1-2.2,0.7-4.2,1.9-6C327.3,337.9,328,408.8,328.9,479.9z"/>
	<path class="st1" d="M156.9,299.7c1.3-0.3,1.7,1,2.4,1.8c4,4.8,8,9.7,12,14.5c0.6,0.8,1.1,1.8,2.1,2c0.2,0.2,0.3,0.5,0.5,0.7
		c0.4-0.4,0.3-0.7-0.1-1c-0.8-5.5-2.4-10.8-4.1-15.9c-2.6-7.7-3.3-15.6-3.1-23.7c0.1-4.4-1.3-8.8-0.3-13.2c0.2-1-0.6-1.8-1-2.6
		c-5.5-10.3-11-20.5-16.6-30.9c1.5-0.8,2,0.4,2.6,1.3c6.9,10.5,13.8,21,20.8,31.4c6.8,10.3,13.7,20.5,20.5,30.8
		c10.3,15.7,20.5,31.4,30.7,47.2c1.9,3,1.8,3.2-1.2,4.7c-2.3,1.1-4.6,2.2-6.9,3.4c-1.5,0.8-2.3,0.4-3.2-1.2
		c-5.9-11.1-11.8-22.1-17.8-33.1c-5.7-10.5-11.1-21.3-17.4-31.4c-1.6-2.5-2.2-5.7-4.6-8.5c1.5,16.2,3,31.8,4.5,47.8
		c2.1-1.3,1.4-2.7,1.5-3.9c0-1.2-0.3-2.4,0.3-3.8c0.9,2.9,2.5,5.5,2.4,8.1c0,5,3.2,7.3,5.5,10.2c6.4,8.5,13.7,16,19.6,25.1
		c2.6,4,5.4,7.7,8.1,11.6c0.4,0.5,1,1,0.7,2.3c-6.2-6.6-12.1-13.2-18.2-19.5c-13.5-13.9-23.3-31.6-34.8-47.5
		C160.1,304.1,158.5,301.9,156.9,299.7L156.9,299.7z"/>
	<path class="st0" d="M158,236.4c-0.6-2.4-2.9-2.2-4.2-3.9c-3.1-4.1-6.9-7.5-10.4-11.2c-1-1-1.4-0.4-1.9,0.6
		c-2.9,6.5-5.9,13.1-8.8,19.6c-0.7,1.6-0.1,2.9,0.5,4.3c3.6,8.3,7.1,16.6,10.7,25c0.3,0.8,0.5,1.6,0.7,2.4c-3.4-1-5.8-4-8.7-5.9
		c-1.4-0.9-2.5-1.1-3.8-0.1c-5.5-6-10.7-12.2-16-18.5c-4.3-5.1-8.4-10.6-12.4-16.1c-1.3-1.8-0.7-2.9,0.8-3.8
		c5.9-3.7,11.9-7.4,17.8-11.2c3.7-2.3,7.4-4.6,11-6.9c1.8-1.2,3.2-1.2,5,0.6c6.6,6.7,13.3,13.1,20.3,19.2c3.5,3.1,5.1,7.8,7.3,12
		l0,0C163.2,240.5,161.3,237.2,158,236.4L158,236.4z"/>
	<path class="st1" d="M586.9,82.6c0.1-2.2-1.3-3.2-2.5-4.4c-6.7-6.5-13.3-13.1-19.6-20c-1.8-1.9-3.4-4-5.1-6
		c-0.5-0.7-0.9-1.4-0.3-2.3c6.2,5.6,12.4,11.4,18.8,16.5c15.1,12.1,29.1,26.1,44.2,38.2c6,4.8,11.4,10.8,17.8,14.7
		c8.5,5.3,15.4,13.2,23.5,19c2.4,1.7,3.9,4.6,6.4,6.1c-1-1.3-2.3-1.2-3.6-1c-5.1,0.9-10.1,0.8-15.2-0.1c-3.1-2.9-5.9-6.1-9-8.9
		c-10.7-10-21.2-20.2-31.9-30.3c-7-6.6-14.1-13-21.2-19.5C588.4,84,587.7,83.4,586.9,82.6C587,82.7,586.9,82.6,586.9,82.6z"/>
	<path class="st1" d="M567.2,215.3c0.8,1.8,0.1,3.1-0.9,4.4c-2.5,3.2-5,6.4-7.5,9.5c-10.8,13.3-21.6,26.6-32.5,39.9
		c-0.7,0.9-1.4,1.7-1.6,3c0,0-0.1,0-0.1,0c-0.4,0.4-0.7,0.8-1.1,1.2c0,0,0,0,0,0c-0.2,0.3-0.5,0.6-0.7,0.9l0,0.2c0,0-0.2,0-0.2,0
		c-0.7,0.3-1.2,0.8-1.3,1.7c0,0.3-0.1,0.4-0.3,0.4c-0.6,0.3-1.1,0.8-1.3,1.6c-8.8,10.4-17.5,20.9-26.3,31.3
		c-11.2,13.4-22.3,26.8-33.5,40.1c-0.8,0.9-1.4,2.4-3.2,2.1c0.9-1.8,1.8-3.5,2.7-5.2c8.9-16.4,17.7-32.9,26.8-49.2
		c2.9-5.3,5.8-11,10.9-13.9c1.1-0.4,2.2-0.8,3.3-1.1c-4.9,7-9.8,14-14.7,21c-0.5,0.8-1.5,1.4-1,2.7c-1.1-0.5-1.1,0.3-1.1,1.2
		c-0.4,0.2-0.8,0.4-1.1,0.6c-0.2,0.2-0.4,0.5-0.6,0.7c0.2,0.2,0.3,0.6,0,0.7c-0.1,0.1-0.6-0.2-0.6-0.3c-0.1-0.5,0-0.8,0.5-0.4
		c0-0.5,0.2-0.7,0.6-0.7c0.4-0.2,0.8-0.4,1.2-0.6c0.4-0.4,0.8-0.8,1.1-1.2c9.1-10.8,19-20.7,28.4-31.1c15.8-17.5,31.7-35,47.5-52.4
		C562.7,220.1,565,217.7,567.2,215.3z"/>
	<path class="st1" d="M320.9,146.9c1.2,0.3,2.4,0.4,3.5,0.9c1.3,0.5,2.6,1.5,2.7,3.3c0.2,1.7-1.1,2.4-2.2,3c-3.9,2.3-8.2,4-11.2,8
		c-3.3,2.9-7.3,4.5-10.8,7c-3.1,2.3-7,3.2-9.2,7.2c-4.7,3.6-6.3,2.9-9.8-2.2c-4.8-7-7.4-15.1-10.2-23.3c-0.9-2.8-0.5-3.5,2.2-3.5
		c8.6,0,17.1,0,25.7,0.1c1.7,0,3.3-0.1,4.9-0.7C311.3,146.8,316.1,146.8,320.9,146.9z"/>
	<path class="st1" d="M196.7,116.5c-2.7-2.5-4.3-6.2-6.6-9.1c-3.3-4.1-6.2-8.6-9.2-12.9c-1.6-2.3-1.6-4.3,0.7-5.6
		c8.9-5.4,16.9-12.3,25.6-18.1c0.7-0.5,1.4-1.1,2.3-0.8c0,20.1,0,40.2,0,60.3c-1.9,0.6-2-1.1-2.8-1.1c0,0,0,0.1,0,0.1
		c-0.2-0.3-0.4-0.7-0.7-1c-0.7-1.4-1.2-2.8-2.6-3.4c-1.4-3.2-3.8-5.5-5.6-8.4C197.4,116.1,197,116.3,196.7,116.5z"/>
	<path class="st1" d="M334.6,147.7c-0.3-0.1-0.5-0.3-0.8-0.4c-0.1-0.4,0.1-0.9-0.5-1c0,0,0,0,0,0c0-0.5-0.2-0.7-0.6-0.7l0,0.1
		c-0.1-1.2-1-1.8-1.7-2.5c-11.5-13.5-23.1-26.9-33.8-41.4c-3.8-5.1-7.4-10.5-10.4-16.3c1.6-3.5,5-3.3,7.4-5c0.9-0.7,1.7,0.8,2.2,1.6
		c1.4,2.1,3.2,3.9,4.4,6.3c0.9,1.9,2.3,3.3,3.9,0.6c10.8,16.8,21.7,33.5,32.5,50.3c0.6,0.9,1.2,2,1.7,2.9c-1.2,1.9-2.3,3.8-3.5,5.7
		C335.1,147.7,334.8,147.7,334.6,147.7z M304.4,91.5c-0.1,0.1-0.2,0.3-0.3,0.4c0,0,0.1,0.2,0.1,0.2c0.1-0.1,0.3-0.2,0.4-0.2
		C304.6,91.8,304.5,91.7,304.4,91.5z M306.9,95.1c-0.1-0.1-0.3-0.2-0.4-0.2c-0.1,0.2-0.2,0.4-0.2,0.5c0,0.1,0.3,0.2,0.4,0.2
		C306.8,95.4,306.9,95.2,306.9,95.1z M308.1,97.2c-0.1-0.2-0.1-0.4-0.2-0.5c0,0-0.2,0-0.2,0c0,0.2,0,0.4,0,0.5
		C307.8,97.2,307.9,97.2,308.1,97.2z M305.4,93.5c0,0.1,0,0.2,0,0.2c0.1-0.1,0.2-0.1,0.3-0.2c-0.1-0.1-0.1-0.1-0.2-0.2
		C305.5,93.3,305.4,93.4,305.4,93.5z"/>
	<path class="st1" d="M360.9,253.9c-2.1-0.4-3.8,1.3-6,1c-1.4-0.2-0.8,1.8-1,2.9c-0.1,0.9,0,2.3-1,2.4c-1.2,0.2-1.4-1.2-1.5-2.3
		c-0.3-5.1-0.6-10.2-0.9-15.3c-0.4-7.3-0.3-14.6-1-21.8c-1-10.2-0.3-20.4-1.4-30.5c-0.6-5.2,0.1-10.4-0.7-15.5
		c0.2-0.1,0.5-0.2,0.7-0.2c4.3,13.3,8.5,26.7,12.8,40c-1.8,1.4-1.4,3.6-1.5,5.6c-0.2,7.3,1.8,14.6,0,21.9c-0.1,0.5,0,1.1,0.2,1.6
		C361.1,247,360.8,250.5,360.9,253.9z"/>
	<path class="st1" d="M269.6,91c0.1-0.7,0.6-1.7,0.3-2.2c-2.7-4.9-3-11.1-6.2-15.8c-3.1-4.6-6.3-8.9-10-12.9
		c-3.7-4.1-7.3-8.2-11-12.4c-0.8-0.9-1.1-2.2-0.6-3.3c0.9-2.1,2.6-1.7,4.2-1.7c-0.9,1.7,0.5,2.4,1.2,3.2
		c9.5,11.8,19.2,23.3,28.5,35.3c12.3,15.8,25.9,30.1,39.3,44.7c0.3,0.4,0.6,0.8,0.9,1.2c-0.1,0.2-0.2,0.4-0.2,0.6
		c-6.5-4.3-12.5-9.6-18.7-14.5c-8.8-6.9-17.5-14-26.3-21c-0.1-0.5-0.4-0.7-0.8-0.7c0,0,0.1,0,0.1,0C270.1,91.4,269.9,91.2,269.6,91
		L269.6,91z"/>
	<path class="st1" d="M327.1,197.7c0.2-0.2,0.5-0.5,0.7-0.7c-0.3,7.4-2.1,14.5-3,21.8c-2.7,23-7.2,45.6-10.1,68.6
		c-0.4,3.3-1.1,6.5-2.4,10.2c-1.7-5.6-3.3-10.5-4.8-15.4c-1.6-5.4,0.3-10.3,1.6-15.4c4-15.3,7.8-30.7,11.7-46.1
		c0.1-0.2,0.2-0.4,0.2-0.6c0,0,0,0.1,0,0.1c0.2-0.8,0.4-1.5,0.6-2.3c0,0,0,0,0,0c2.1-6,3.3-12.2,5-18.3c0.1-0.3,0.2-0.5,0.3-0.8
		C326.9,198.4,327,198.1,327.1,197.7z"/>
	<path class="st0" d="M360.9,253.9c-0.1-3.4,0.2-6.9-1.2-10.2c-0.2-0.5-0.3-1.1-0.2-1.6c1.8-7.3-0.2-14.6,0-21.9
		c0.1-2-0.3-4.2,1.5-5.6c2,4.5,2.9,9.2,3.1,14.3c0.9,39.8,2,79.5,3.1,119.3c0.1,5.8,0,11.5,0,17.1c-1.1-3.8-1.1-8-1.2-12.2
		c-0.8-23.8-1.4-47.7-2.4-71.5c-0.2-5.5-0.3-11.1-2.1-16.4C360.3,261.6,361.8,257.7,360.9,253.9z"/>
	<path class="st1" d="M226.9,3.7c-0.9,5.7-2.7,11.1-4,16.6c-0.9,3.8-2,4.1-4.6,1.5c-5.7-5.6-11.4-11.1-17-16.7
		c-0.3-0.3-1.2-0.5-0.8-1.4C209.2,4.4,218.1,3.5,226.9,3.7z"/>
	<path class="st0" d="M278,360.9c4.4,5.4,8.8,10.8,13.3,16.2c1.2,1.4,2.2,2.9,3.7,3.8c0,0-0.1,0.1-0.1,0.1c0.2,0.1,0.3,0.2,0.5,0.3
		c3.9,10.2,7.1,20.8,10,30.9c-6.7-10.3-12.8-21.6-19.1-32.7c-3-5.2-5.9-10.5-8.9-15.8c-0.6-1-1.6-2.2,0.2-3.1
		C277.8,360.6,278,360.7,278,360.9C278,360.9,278,360.9,278,360.9z"/>
	<path class="st0" d="M344.4,215.3c-2.3,6-4.6,12-6.8,18c-1.9-0.1-1.2-1.9-1.2-2.9c-0.4-9.5,0.4-19-0.4-28.5
		c-0.4-4.3-0.5-8.6-0.7-13c2,0.7,3.8,0.9,5-1.5C341.6,196.6,343,205.9,344.4,215.3z"/>
	<path class="st1" d="M351.9,128.5c0.4,3-1.2,3.4-3.1,3.5c-1.3-5-3.7-9.4-5.8-13.9c-3.8-8.4-6.6-17.3-10.3-25.7
		c-0.2-0.5-0.4-1-0.4-1.5c-0.1-1.2-1.2-2.9,0.2-3.5c1.4-0.5,1.2,1.8,1.9,2.5c2.4,2.6,3.6,6,5.1,9.3c2.8,6.4,5.7,12.7,8.5,19
		C349.4,121.5,351.7,124.5,351.9,128.5z"/>
	<path class="st0" d="M390.7,262c0-4.1,2.6-7.2,3.2-11.1c0.4-3.1,1.1-6.2,1.7-9.2c0.2-1,0-2.9,1.1-2.5c1.1,0.4,3,0.8,2.9,3.2
		c-0.1,2-0.1,3.9-0.5,5.8c-2,10.7-2.2,21.8-4.6,32.5C393.1,274.5,391.2,268.4,390.7,262z"/>
	<path class="st1" d="M132.1,267.2c1.3-1,2.4-0.7,3.8,0.1c3,1.9,5.3,4.9,8.7,5.9c2.2,3.2,5.5,4.7,8.2,7c3.5,2.9,7,5.6,11.2,8.8
		c-2.2-0.1-3.5-0.2-4.9-0.7c-1.7-0.7-3.3-1.6-5-1.9c-7.2-1.5-12.7-6-17-12.7C135.6,271.4,133.4,269.7,132.1,267.2z"/>
	<path class="st1" d="M345.2,136.4c-0.2,2.2-1.3,3.1-3.1,3c-2.3-1-2.9-3.8-4.1-6c-5-8.9-10.3-17.5-14.8-26.7
		c-0.4-0.8-1.5-1.7-0.5-2.5c0.9-0.8,1.2,0.8,1.8,1.4c3,2.9,5.8,6.1,8.1,10c3.6,6.4,7.8,12.4,11.2,19
		C344.1,135.4,344.2,136.4,345.2,136.4z"/>
	<path class="st0" d="M436.8,390c4.1-7.6,6.8-16.2,13.6-21.4c5.2-3.9,9.6-9.1,14.4-13.7c0.5-0.5,1-0.8,1.7-1
		C456.9,366.3,447.6,379,436.8,390z"/>
	<path class="st1" d="M229.3,145.2c-2.6-0.3-5.2-0.6-7.8-0.8c-0.3-0.3-0.6-0.5-0.9-0.8c-5.1-4.5-5.3-5.3-2.5-12.1
		c0.4-0.9,0.6-1.6,1.5-0.8c5.1,4.6,10.2,9.2,15.1,14.5C232.9,145.2,231.1,145.2,229.3,145.2z"/>
	<path class="st1" d="M503.5,264.2c-3.6,6.8-7.1,13.6-10.7,20.5c-0.7,1.4-1.5,1.4-2.5,0.5c-1.8-1.8-3.7-3.7-5.5-5.5
		c-0.8-0.8-0.6-1.4,0.2-2c6-4.7,11.7-9.9,17.9-14.3C503.2,263.7,503.4,263.9,503.5,264.2z"/>
	<path class="st1" d="M345,148c2-1.5,4.1-0.6,6.2-0.7c0.5,1.1,0.5,2.8,2.2,2.3c0,0,0,0,0,0c-1.2,2.3-0.1,4.4,0.6,6.5
		c2.2,6.5,3.5,13.3,5.4,19.9c0.1,0.5,0.1,1-0.5,1.9C354.3,167.8,349.6,157.9,345,148z"/>
	<path class="st1" d="M340.3,187.3c-1.2,2.5-3.1,2.3-5,1.5c-0.5-8.4-1-16.9-1.5-25.3c0-2.3,0.3-4.5,0.7-6.7c0.1-0.7,0.2-1.6,1.1-1.4
		C337,166.1,339.2,176.6,340.3,187.3z"/>
	<path class="st1" d="M400.4,384.6c-3.6,4.1-7.5,7.2-11.7,10.3c-3.6,2.6-7.3,5.4-10.9,8.2c-3.5,2.7-7,5.2-10.6,7.8
		c-0.6,0.5-1.4,1-2.1,0.4c-0.9-0.8-0.2-1.8,0.1-2.7c0.3-1.1,0.9-1.8,1.8-2.4c7.9-5.2,15.5-11.1,23.5-16.1
		C393.7,388.1,396.9,386,400.4,384.6z"/>
	<path class="st0" d="M305.7,16.9c-0.2,1.9,0.3,3.6,1.1,5.2c0.9,1.6,2.1,3.3,0.3,5.1c-1.6,1.5-3.2,3.1-5.2,0.7
		c-0.2-0.3-0.6-0.5-0.9-0.7c-1.4-4.4-4.6-7.5-6.1-11.9c-0.3-1-1.3-2.1-0.8-2.9c0.8-1.2,1.5,0.6,2.3,0.7c1.1,0.2,2.1,0.9,2.3,2
		c0.9,4.6,3.4,3,5.7,2.2C304.9,17.1,305.3,17,305.7,16.9z"/>
	<path class="st1" d="M330.4,216.4c0.8,19.9,0,39.7-0.2,58.6C329.3,256.2,329.3,236.3,330.4,216.4z"/>
	<path class="st0" d="M203.3,124.9c1.4,0.6,2,2.1,2.6,3.4c0.1,0.4,0.2,0.9,0.7,1c0,0,0-0.1,0-0.1c0.1,4,0.3,8,0.3,12
		c0,1,0.4,2.6-0.8,2.7c-0.7,0.1-1.9-1-2-2.3C203.8,136,202.2,130.5,203.3,124.9z"/>
	<path class="st0" d="M500.3,282.4c-1.1,0.4-2.2,0.8-3.3,1.1c0.5-4.4,3.8-6.5,6.2-9.2c2.4-2.7,4.7-5.4,7.2-8.1
		c0.4-0.4,0.8-0.7,1.4-0.8C508.1,271.3,503.6,276.3,500.3,282.4z"/>
	<path class="st1" d="M537.1,33.6c-2.2,0.9-3.9-0.2-5.6-1.6c0.4-1.8-1-4.6,0.4-5.4c1.3-0.7,2.6,1.8,4,2.9
		C537.2,30.4,538.8,31.4,537.1,33.6z"/>
	<path class="st1" d="M112.9,49.9c-0.3-0.4-1-0.1-1-0.9c1.8-1.4,3.2-3.2,5.2-4.1c0.6,2.4,2.5,4.7,0.2,7.3
		C115.9,51.4,114.4,50.6,112.9,49.9z"/>
	<path class="st1" d="M227.5,341c1.4,2.1,2.7,4.1,4.1,6.3c-2.5,1.4-4-1-5.8-1.7c-0.8-0.3-0.8-1.1-0.4-1.8
		C226,342.8,226.4,341.6,227.5,341z"/>
	<path class="st1" d="M476.8,278.9c2-1.7,3.2-2.9,4.6-3.9c0.5-0.4,1.3-1.4,1.9-0.6c0.7,1,1,2.3,0.9,3.6c-0.1,0.9-1,0.8-1.6,0.9
		C480.9,279,479.2,278.9,476.8,278.9z"/>
	<path class="st0" d="M572.3,242.8c-1.6,2.9-3.6,5.2-5.8,7.5c-0.2-0.3-0.3-0.5-0.5-0.8c1.9-2.4,2.9-5.6,5.5-7.2
		C571.8,242.5,572.1,242.6,572.3,242.8z"/>
	<path class="st0" d="M557.4,261.5c-0.5,1.4-1.3,2.4-3,3.6c0.9-2,1.6-3.1,2.8-3.9C557.2,261.4,557.3,261.5,557.4,261.5z"/>
	<path class="st1" d="M330.2,85.7c-0.1-0.4-0.2-0.9-0.3-1.3c0,0,0.5-0.3,0.6-0.2c0.2,0.3,0.3,0.7,0.4,1.1
		C330.9,85.6,330.7,85.8,330.2,85.7z"/>
	<path class="st0" d="M565.2,251.8c-0.4,1.3-1.2,2.1-2.2,2.6c-0.1-0.2-0.3-0.3-0.4-0.5c0.5-1.2,1.2-2.2,2.2-2.8
		C565,251.4,565.1,251.6,565.2,251.8z"/>
	<path class="st0" d="M552.3,268c-0.1,0.6-0.3,1-0.8,1.2c0,0-0.1-0.1-0.1-0.2C551.6,268.5,551.8,268.1,552.3,268L552.3,268z"/>
	<path class="st0" d="M562.5,255.1c-0.3,0.9-0.7,1.7-1.6,2c-0.1-0.1-0.2-0.2-0.3-0.4c0.3-0.9,0.9-1.5,1.5-2.1
		C562.2,254.8,562.4,255,562.5,255.1z"/>
	<path class="st0" d="M611.6,166.3c0.6-0.9,1.2-1.9,2.1-2.5c0.2,0.3,0.3,0.6,0.5,0.9c-0.6,0.8-1.3,1.5-1.9,2.3
		C612.1,166.8,611.9,166.6,611.6,166.3z"/>
	<path class="st0" d="M521.3,276.2c0.1-0.9,0.6-1.4,1.3-1.7C522.6,275.5,522.1,276.1,521.3,276.2z"/>
	<path class="st0" d="M158,236.4c-0.1,0.5,0.5,1.1,0,1.6C157.2,237.4,158,237,158,236.4C158,236.4,158,236.4,158,236.4z"/>
	<path class="st0" d="M613.7,163.9c0.2-0.7,0.6-1.3,1.2-1.5c0.3,0.3,0.5,0.6,0.8,0.8c-0.4,0.7-0.8,1.3-1.5,1.5
		C614,164.5,613.9,164.2,613.7,163.9z"/>
	<path class="st0" d="M579,227.4c-0.1,0.2-0.3,0.4-0.4,0.6c0-0.1-0.1-0.2-0.1-0.2C578.5,227.4,578.7,227.3,579,227.4
		C579,227.4,579,227.4,579,227.4z"/>
	<path class="st0" d="M574.3,240.3c-0.4,0.5-0.8,0.9-1.2,1.4c-0.1-0.3-0.3-0.5-0.4-0.8c0.2-0.6,0.6-1.1,1.1-1.3
		C574,239.9,574.2,240.1,574.3,240.3z"/>
	<path class="st0" d="M165.8,242.5c0.1,0.1,0.3,0.2,0.4,0.3C166.1,242.7,166,242.6,165.8,242.5C165.9,242.4,165.8,242.5,165.8,242.5
		z"/>
	<path class="st0" d="M557.2,261.3c0.1-0.7,0.4-1.2,1.1-1.4c0.1,0.1,0.2,0.2,0.3,0.2c-0.1,0.8-0.4,1.2-1.1,1.4
		C557.3,261.5,557.2,261.4,557.2,261.3z"/>
	<path class="st0" d="M523.5,273.3c0.4-0.4,0.7-0.8,1.1-1.2C524.7,273,524.4,273.5,523.5,273.3z"/>
	<path class="st0" d="M519.6,278.2c0.3-0.7,0.7-1.2,1.3-1.6C520.8,277.5,520.3,277.9,519.6,278.2z"/>
	<path class="st0" d="M338.3,3.7c-0.1,0-0.3,0-0.4,0.1c0-0.2,0-0.3,0.1-0.5c0,0,0.2-0.1,0.2,0C338.3,3.4,338.3,3.6,338.3,3.7z"/>
	<path class="st1" d="M382.9,355.9c0.2,0.3,0.5,0.6,0.3,1c0,0-0.2,0-0.2-0.1C383,356.6,383,356.3,382.9,355.9
		C382.9,355.9,382.9,355.9,382.9,355.9z"/>
	<path class="st0" d="M566.2,250.7c-0.3,0.4-0.7,0.7-1,1.1c-0.1-0.2-0.3-0.4-0.4-0.6c0.2-0.3,0.4-0.7,0.7-1
		C565.7,250.3,566,250.5,566.2,250.7z"/>
	<path class="st0" d="M270.2,91.6c0.4,0,0.7,0.2,0.8,0.7C270.8,92,270.5,91.8,270.2,91.6z"/>
	<path class="st1" d="M503,263.4c0.2-0.3,0.5-0.7,0.8-0.4c0.4,0.5,0.1,0.9-0.3,1.1C503.4,263.9,503.2,263.7,503,263.4z"/>
	<path class="st0" d="M522.8,274.3c0.2-0.3,0.5-0.6,0.7-0.9C523.6,274,523.4,274.3,522.8,274.3z"/>
	<path class="st1" d="M327.7,197c0.1-0.4,0.3-0.8,0.4-1.2C328.1,196.2,328.2,196.8,327.7,197z"/>
	<path class="st1" d="M154.9,296.1c0-0.2-0.1-0.3-0.1-0.5c-0.1,0.2-0.2,0.3-0.3,0.5C154.7,296.1,154.9,296.2,154.9,296.1
		L154.9,296.1z"/>
	<path class="st1" d="M558.5,49.4c-0.1-0.1-0.1-0.2-0.2-0.3C558.4,49.2,558.4,49.3,558.5,49.4z"/>
	<path class="st1" d="M196.9,3.7c0.1,0.5,0.2,0.4,0.4,0c0,0-0.2-0.1-0.2-0.1L196.9,3.7z"/>
	<path class="st0" d="M560.5,257.8c-0.3,0.4-0.6,0.8-0.8,1.1c-0.1-0.1-0.2-0.2-0.3-0.4c0.1-0.5,0.3-0.9,0.8-1.1
		C560.2,257.6,560.3,257.7,560.5,257.8z"/>
	<path class="st1" d="M316.2,127.1c0.3,0.2,0.7,0.4,0.3,0.9c0,0-0.4-0.2-0.6-0.3C316,127.5,316.1,127.3,316.2,127.1z"/>
	<path class="st0" d="M263.4,121.2l-0.2,0.1C263.3,121.2,263.4,121.1,263.4,121.2C263.4,121.1,263.4,121.2,263.4,121.2z"/>
	<path class="st0" d="M572.2,241.6c0.2-0.2,0.4-0.4,0.6-0.7c0.1,0.3,0.3,0.5,0.4,0.8c-0.2,0.2-0.4,0.5-0.5,0.7
		C572.5,242.1,572.3,241.9,572.2,241.6z"/>
	<path class="st0" d="M572.6,242.4c0,0.2-0.1,0.3-0.3,0.4c-0.2-0.2-0.4-0.3-0.7-0.5c0.2-0.2,0.4-0.5,0.6-0.7
		C572.3,241.9,572.5,242.1,572.6,242.4z"/>
	<path class="st0" d="M609.9,168.3c0.2-0.2,0.4-0.5,0.5-0.7c0.2,0.3,0.5,0.5,0.7,0.8c-0.2,0.2-0.4,0.4-0.6,0.7
		C610.4,168.8,610.2,168.5,609.9,168.3z"/>
	<path class="st0" d="M562.1,254.7c0.2-0.2,0.4-0.5,0.5-0.7c0.1,0.2,0.3,0.3,0.4,0.5c-0.2,0.2-0.4,0.5-0.6,0.7
		C562.4,255,562.2,254.8,562.1,254.7z"/>
	<path class="st0" d="M610.5,167.6c0.2-0.2,0.4-0.4,0.6-0.6c0.2,0.2,0.4,0.5,0.7,0.7c-0.2,0.2-0.4,0.4-0.5,0.7
		C610.9,168.1,610.7,167.8,610.5,167.6z"/>
	<path class="st0" d="M559.6,258.9c-0.2,0.2-0.4,0.4-0.6,0.7c-0.1-0.1-0.2-0.2-0.3-0.3c0.2-0.2,0.4-0.5,0.5-0.7
		C559.4,258.7,559.5,258.8,559.6,258.9z"/>
	<path class="st0" d="M559.1,259.6c-0.2,0.2-0.4,0.4-0.6,0.6c-0.1-0.1-0.2-0.2-0.3-0.2c0.2-0.2,0.3-0.5,0.5-0.7
		C558.9,259.3,559,259.4,559.1,259.6z"/>
	<path class="st0" d="M611,167c0.2-0.2,0.4-0.4,0.6-0.6c0.2,0.2,0.4,0.5,0.6,0.7c-0.2,0.2-0.4,0.4-0.5,0.6
		C611.5,167.5,611.3,167.2,611,167z"/>
	<path class="st0" d="M269.7,91c0.2,0.2,0.4,0.3,0.6,0.5C270.1,91.4,269.9,91.2,269.7,91z"/>
	<path class="st1" d="M303.5,87.3c-0.2-0.2-0.4-0.4-0.6-0.6C303.3,86.6,303.5,86.9,303.5,87.3z"/>
	<polygon class="st0" points="553.9,265.8 553.7,265.9 553.7,265.7 	"/>
	<path class="st1" d="M302.8,86.8l0.1-0.1c0,0-0.1-0.1-0.1-0.1c0-0.1,0.1,0.1,0.1,0.1L302.8,86.8z"/>
	<path class="st0" d="M560.9,257.1c-0.1,0.2-0.3,0.5-0.4,0.7c-0.1-0.1-0.3-0.2-0.4-0.3c0.2-0.2,0.4-0.5,0.5-0.7
		C560.7,256.9,560.8,257,560.9,257.1z"/>
	<path class="st0" d="M552.9,267.4c0.1-0.1,0.1-0.2,0.2-0.3c0,0.1,0,0.1,0,0.2C553,267.3,552.9,267.3,552.9,267.4
		C552.9,267.3,552.9,267.4,552.9,267.4z"/>
	<path class="st0" d="M552.3,268c0-0.4,0.2-0.6,0.6-0.7c0,0,0,0,0,0C552.7,267.5,552.5,267.8,552.3,268
		C552.3,268,552.3,268,552.3,268z"/>
	<path class="st1" d="M155,296.2c0,0-0.1,0-0.1,0C154.9,296.2,154.9,296.2,155,296.2C154.9,296.1,155,296.2,155,296.2z"/>
	<polygon class="st1" points="156.9,299.6 156.9,299.5 156.9,299.7 	"/>
	<path class="st0" d="M306.4,16.6c-0.2,0.1-0.3,0.3-0.5,0.4C306.1,16.8,306.2,16.7,306.4,16.6z"/>
	<path class="st1" d="M295.4,381.3c-0.2-0.1-0.3-0.2-0.5-0.3C295.3,380.7,295.3,381.1,295.4,381.3z"/>
	<polygon class="st0" points="49.3,188.5 49.5,188.4 49.4,188.6 	"/>
	<path class="st0" d="M565.5,250.2c0.2-0.2,0.4-0.5,0.5-0.7c0.2,0.3,0.3,0.5,0.5,0.8c0,0.2-0.1,0.4-0.3,0.4
		C566,250.5,565.7,250.3,565.5,250.2z"/>
	<path class="st2" d="M440.3,149.1c-0.5,9.9-1,19.8-1.4,29.7c-0.3,7.9-2.6,15.3-4.5,22.7c-1.1,4.3-1.7,8.7-2.7,13
		c-0.5,2-0.4,4.8-3.4,4.4c-0.8-0.1-1,1.2-1.1,2c-4.6,23.5-13.7,45-20.8,67.5c-0.4,1.2-0.7,2.4-2.1,3.6c0.2-5.8,0.5-10.9,1.1-16.1
		c0.7-6.4,1.2-12.8,1.7-19.2c0.8-9.4,1.5-18.9,2.3-28.3c0.1-0.8,0.1-1.5,0.6-2.1c2.7-1.6,4.2-3.9,4.4-7.6c0.2-3.8,0.8-7.5,1.3-11.3
		c1.1,0.9,2.3,1.8,3.4,2.7c2.6-0.5,6.1-4.6,6.4-7.8c1.6-14.2,3.1-28.5,4.6-42.7c0.4-3.3,1.2-6.7,0.8-10.4c-2,2-3.4,4.2-4.8,6.3
		c-0.3-3.2,0.6-6.2,0.7-9.3c4.1-1.6,8.3-0.9,12.5-0.7C441.1,145.6,440.3,147.8,440.3,149.1z"/>
	<path class="st2" d="M513.4,105.9c-1,1-1.5-0.2-2.1-0.7c-6.6-4.8-13.1-9.8-19.7-14.6c-1.9-1.4-2-2.7-1-4.8
		c3.9-8.4,8.1-16.5,11.6-25.2c0.4-0.9,0.8-1.6,1.6-1.2c0.8,0.4,0.9,1.4,0.5,2.3c-1.1,2.6,1.2,4,1.7,6c0.3,1,1.1-0.2,1.3-0.7
		c1-2.1,1.9-4.2,2.9-6.3c0.4-0.9,0.7-2.4,1.6-2.4c1-0.1,1.2,1.4,1.6,2.4c3.2,7.6,6.3,15.2,9.4,22.9c5.1,12.6,10.2,25.1,15.4,37.7
		c0.2,0.6,0.5,1.2,0.7,1.8c0.1,0.5,0.2,1.1-0.3,1.4c-0.5,0.2-0.9-0.2-1.2-0.6c-0.5-1-1-2.1-1.5-3.1c-6.5-15.6-13.1-31.2-19.8-46.8
		c1.5,7.4,2.1,15,4.6,22c0.5,7.2,3.2,13.5,5.6,19.9c-3.5-1.9-6.9-3.7-9.4-7.4c-1.2-12.7-2.3-25.4-3.5-38.1c-0.1-2.8-0.1-5.5-1-8.9
		c-0.5,3.5-0.3,6.4,0.1,9.2C512.9,82.3,513.1,94.1,513.4,105.9z"/>
	<path class="st2" d="M481,144.6c-2.2-0.1-3,1.8-3.9,3.6c-6.7,13.6-13.5,27.3-20.2,40.9c-9.5,19.1-18.9,38.3-28.7,57.3
		c2.6-6.8,5.1-13.7,7.8-20.4c6-14.8,11.6-29.8,17.2-44.8c4.1-10.8,8.2-21.5,13.4-31.6c0.7-1.3,1-2.6,0.1-3.9
		c1.9-0.3,3.8,1.8,5.8,0.4c0.4-0.3,1.6-0.3,0.2-1.1c-0.6-0.4-0.4-1.1-0.3-1.8c1.6-9.2,3.2-18.5,4.9-28.1c2.5,3.4,6.4,4.1,8,8.4
		c1.7,4.6,1.6,7-1.5,10.4C481,136.8,480.2,140.4,481,144.6z"/>
	<path class="st2" d="M589.2,84.7c7.1,6.5,14.2,12.9,21.2,19.5c10.7,10.1,21.2,20.3,31.9,30.3c3.1,2.9,5.9,6.1,9,8.9
		c-0.1,1.3-0.9,0.8-1.5,0.8c-3.3,0-6.7-0.2-10-0.1c-2.4,0-3.7-1.9-5.1-3.5c-7.4-8.5-14.8-17-21.7-26.1c-6.9-9-14.9-16.5-22-25.3
		c-0.8-1-1.7-2-2.4-3.1C587.8,85.1,588.3,84.8,589.2,84.7z"/>
	<path class="st2" d="M465.8,145.9c-7.4,15.7-14.7,31.4-22.4,47.8c-0.5-3-1.3-5.5-0.3-7.7c1.5-3.2,2.1-6.7,3.6-9.9
		c1.3-2.8,1.6-5.9,2-9c0.6-4.7,2.6-9.1,2.4-14.1c0-1.5,0.2-3.2,1.5-4.4c1-1,0.1-2.2,0-3.4C457.1,146,461.4,145.9,465.8,145.9z"/>
	<path class="st2" d="M464.6,69.9c4.7-1,8.4-3.4,12.7-3.7c2.3-0.2,4.6-0.5,6.8-1.3c2.5-0.8,4.6,0.5,5.6,3.3c0.5,1.2,0.4,2.3-0.8,3
		c-3.6,2.3-7.1,4.7-10.7,6.9c-1.3,0.8-2.5,0.8-3.9-0.3C471.4,75.2,468,73.4,464.6,69.9z"/>
	<path class="st2" d="M611.7,167.7c0.2-0.2,0.4-0.4,0.5-0.6c0.6-0.8,1.3-1.5,1.9-2.3c0.7-0.3,1.1-0.9,1.5-1.5
		c0.9-0.3,1.6-2.5,2.6-0.5c0.7,1.4,1.7,2.8,0.2,4.6c-7.1,8.6-14,17.3-21.1,26c-1.3,1.6-2.2,3.8-4.3,4.7c0.8-3.6,0.1-7.6,2.5-10.6
		c5-6.1,9.9-12.3,14.9-18.4c0.2-0.2,0.4-0.4,0.6-0.7C611.4,168.2,611.5,167.9,611.7,167.7z"/>
	<path class="st1" d="M513.4,105.9c-0.3-11.8-0.5-23.6-0.8-35.4c0.3-0.1,0.6-0.2,0.9-0.3c1.2,12.7,2.3,25.4,3.5,38.1
		C515.2,108.8,514.4,107.2,513.4,105.9z"/>
	<path class="st2" d="M450.3,145.6c-1.4,8.6-4.4,16.6-6.8,24.8c-0.9,3.3-1.7,6.6-3,9.7c2-11.4,4-22.7,6-34.1
		C447.7,144.8,448.9,144.4,450.3,145.6z"/>
	<path class="st1" d="M526.4,115.7c-2.4-6.4-5.2-12.7-5.6-19.9c2.5,5.4,5,10.8,7.4,16.2c0.7,1.6,1.3,3.3,1.3,5.3
		C528.3,116.8,527.4,116.2,526.4,115.7z"/>
	<path class="st2" d="M500.5,26.5c-1.3-3-2.4-5.7-3.6-8.4c-0.2-0.5-0.4-1.1,0-1.5c0.4-0.5,0.8-0.2,1.3,0c1.5,0.5,2.3,1.7,2.3,3.6
		C500.5,22.2,500.5,24.2,500.5,26.5z"/>
	<path class="st2" d="M440.2,34.1c0.6-1.4,2.8-1.8,2.1-3.8c-0.6-1.7-2.4-1.3-3.7-1.6c-1.6-0.3-3.3-0.5-4.9-0.8
		c2.3,0.5,4.5,1,6.8,1.4c1.2,0.2,2.7,0.3,2.9,1.8c0.2,1.4-1.3,1.9-2.2,2.6C441,34,440.6,34,440.2,34.1z"/>
	<path class="st2" d="M429,27.3c-2.2-1-4.6-1.2-6.9-1.5c-0.2,0-0.3,0.1-0.5,0.1c0.1,0,0.1,0.1,0.2,0.1
		C424.2,26.5,426.5,27.4,429,27.3z"/>
	<path class="st2" d="M353.3,149.5c-1.7,0.5-1.7-1.3-2.2-2.3C352.7,147,353.7,147.3,353.3,149.5z"/>
	<path class="st2" d="M586.9,82.6C586.9,82.6,587,82.7,586.9,82.6c-0.1,0.2-0.2,0.3-0.4,0.4C586.7,82.9,586.8,82.8,586.9,82.6z"/>
	<polygon class="st2" points="583.9,81.1 584,81 583.9,80.9 	"/>
	<path class="st2" d="M559.4,186.1c0.1,0,0.1,0,0.2,0.1C559.5,186.1,559.5,186.1,559.4,186.1C559.4,186.1,559.4,186.1,559.4,186.1z"
		/>
	<polygon class="st2" points="438.7,35.3 438.8,35.2 438.7,35.2 	"/>
	<path class="st2" d="M436.3,38C436.3,38,436.4,37.9,436.3,38C436.4,37.9,436.3,38,436.3,38z"/>
	<path class="st2" d="M437.1,36.7C437.1,36.7,437,36.8,437.1,36.7C437,36.8,437.1,36.7,437.1,36.7z"/>
	<path class="st2" d="M558.2,161.1c0.1-0.1,0.3-0.3,0.4-0.3c0.3,0.2,0.2,0.4,0,0.6C558.5,161.3,558.4,161.2,558.2,161.1z"/>
	<path class="st2" d="M181.4,144.9c6.1,0,6.1,0,6.4,7.4c1,26.4,2,52.9,3,79.3c0.1,1.5,0.3,3-0.2,4.5c-1.7-0.7-2.7-2.4-3.2-4
		c-2-6.3-6.3-10.4-10.1-14.9c-0.4-0.5-0.6-1.1-1.1-1.5c-0.6-0.4-1-2.7-2.1-0.2c-0.5,1-1.4-0.7-1.9-1.3c-4.5-6-8.8-12.1-13.2-18
		c-12.1-16.2-24.3-32.3-36.4-48.5c-1.3-1.7-2.6-2.5-4.5-2.3c-3.1,0.2-6.3,0-9.4,0.1c-1,0-2.5-0.6-3,0.9c-0.5,1.5,0.6,2.6,1.7,3.3
		l0,0c-0.8,0.7-1.3,0-1.8-0.6c0,0-0.2,0.1-0.2,0.1s0.1,0.2,0.1,0.2c0.2-0.5-0.1-0.6-0.4-0.6c0-0.2-0.1-0.4-0.1-0.7c0,0,0,0,0,0
		c-0.2-0.3-0.5-0.7-0.7-1c0,0-0.1,0-0.1,0c-0.7-1.6-2-1.3-3.2-1.4c-10.3-0.7-20.5,0-30.8-0.4c-3.8-0.2-7.5-0.6-11.3-1.2
		c-2.1-0.3-4.4,0.3-6.6,0.1c-5.7-0.4-11.4-0.2-17.1-0.3c-0.4,0-1.1-0.1-1.2-0.4c-0.4-0.7,0.2-1.2,0.6-1.6c2.1-2.5,4.1-5.1,6.4-7.3
		c3-2.9,5.3-6.6,8-9.7c1.7-2,3.1-2.1,5.1-0.9c4.6,3,9.3,5.9,14,8.7c3.8,2.3,3.9,2.2,6.6-1.4c3.5-4.7,3.6-4.7,5.8,0.9
		c0.6,1.5,1.3,2.9,2,4.3c0.4,0.8,1.1,1.3,1.9,0.8c0.9-0.6,0.6-1.7,0.2-2.3c-2.6-3.3-3.9-8-7.5-10.3c-0.7-0.4-1.1-1.4-1.5-2.3
		c-2.2-5.6-4.5-11.2-6.6-16.9c-0.8-2,1.4-7,3.1-7.4c0.8-0.2,1.4,0.5,2,1c1.7,1.5,3.3,3.1,5.4,5.2c-0.6-3.5-1.8-5.9-2.8-8.3
		c-1.5-3.5,1.1-4.8,2.5-6.7c1.4-1.9,2.7-0.1,3.8,0.9c7.2,7,14.4,14,21.7,20.8c2.9,2.7,3.9,5.7,3.1,9.9c-1,5.2-1.3,10.5-2.8,15.6
		c-0.4,1.2-0.4,2.6-0.5,3.9c-0.1,1-0.3,2.1,0.5,2.7c0.8,0.8,1.6,0,2.3-0.5c1.1-0.8,2.2-1.7,3.3-2.5c9.1-6.6,18.3-13.1,27.4-19.7
		c3.7-2.7,3.2-2.5,5,2c2.6,6.5,2.2,12.7,0.2,19.1c-0.3,1-1.3,2.5,0.6,3.1c1.5,0,2.9,0,4.4,0C159.1,144.9,170.2,144.9,181.4,144.9z"
		/>
	<path class="st2" d="M224,87.9c-1-6.5-2.1-12.1-2.5-17.7c-0.4-5.4,4.4-14.1,8.1-15.6c1.9-0.7,4-0.6,5.7-2.4
		C232.5,64.2,228.7,75.8,224,87.9z"/>
	<path class="st2" d="M153.8,27.2c-2.6,3.5-5.1,7-8,10.8c0.7-7.2,3.1-10.7,8.3-12.4c1.1-0.4,2.1-0.9,3-1.7c0.4-0.4,0.9-0.5,1.3-0.1
		c0.4,0.4,0.2,1,0,1.5c-3.5,8.1-5.6,17-11.1,23.9c-2,2.5-3.2,5.8-4.8,8.7c-0.5,1-1.2,2.5-2.2,1.9c-1.3-0.7,0-2,0.2-3.1
		c1.5-8.9,7.4-14.8,10.9-22.4c1-2.2,2.2-4.4,3.3-6.5C154.4,27.6,154.1,27.4,153.8,27.2z M155.2,26.3c0.1,0,0.1-0.1,0.2-0.1
		c0-0.1-0.1-0.2-0.1-0.2c-0.1,0-0.1,0.1-0.2,0.1C155.1,26.2,155.2,26.2,155.2,26.3z"/>
	<path class="st1" d="M115.9,59.5c0.8,4.6-1,8.7-2.1,12.9c-0.3,1.2-1.1,0.7-1.9,0.4c-3.5-1.4-6.3-4.3-9.5-6.5
		c-0.8-0.6-0.6-1.4-0.2-2.2c1.6-3.4,3.6-6.6,6.6-8.4C111.2,57,113.5,58.3,115.9,59.5z"/>
	<path class="st2" d="M115.9,59.5c-2.4-1.3-4.7-2.5-7.1-3.8c0.8-2.5,3-3.6,4.1-5.8c1.5,0.7,2.9,1.5,4.4,2.2
		C117.4,54.7,117.9,57.5,115.9,59.5z"/>
	<path class="st1" d="M147.9,144.9c-1.5,0-2.9,0-4.4,0c0.7-2.7,1.5-5.4,2.3-8.5C148,139.1,148.5,141.9,147.9,144.9z"/>
	<polygon class="st2" points="290.9,73.5 291.1,73.7 290.9,73.7 	"/>
	<path class="st1" d="M104.2,147.1C104.2,147.1,104.2,147.2,104.2,147.1C104.2,147.2,104.2,147.1,104.2,147.1z"/>
	<path class="st1" d="M105,148.9c0.3,0.1,0.6,0.2,0.4,0.6C105.4,149.2,105.3,148.9,105,148.9z"/>
	<path class="st1" d="M104.9,148.2C104.9,148.2,104.9,148.2,104.9,148.2C104.9,148.2,104.9,148.2,104.9,148.2z"/>
	<path class="st0" d="M116.5,165.9c0.9,0.6,1.7,1.2,2.6,1.8C118,167.4,116.8,167.5,116.5,165.9L116.5,165.9z"/>
	<path class="st2" d="M108.1,152.3c-0.1-0.6-0.1-1.3-0.2-1.9c0,0,0,0,0,0C108,151.1,108,151.7,108.1,152.3L108.1,152.3z"/>
	<path class="st2" d="M133.3,184.5c0.1-0.3,0.1-0.6,0.2-0.9c0.1,0.1,0.1,0.1,0.2,0.2C133.5,184,133.4,184.3,133.3,184.5
		C133.2,184.5,133.3,184.5,133.3,184.5z"/>
	<path class="st0" d="M116.4,165.9c-0.1,0-0.1-0.1-0.2-0.1C116.3,165.8,116.4,165.8,116.4,165.9
		C116.5,165.9,116.4,165.9,116.4,165.9z"/>
	<polygon class="st0" points="114.9,164.9 115.1,164.8 115.1,165 	"/>
	<polygon class="st0" points="113.9,164.4 113.8,164.2 114,164.2 	"/>
	<path class="st2" d="M108.1,152.3c0.1,0,0.1,0.1,0.2,0.1c0-0.1,0-0.1-0.1-0.2C108.2,152.2,108.2,152.3,108.1,152.3
		C108.1,152.3,108.1,152.3,108.1,152.3z"/>
	<path class="st2" d="M107.3,149.7c0,0.5,0.2,0.7,0.6,0.7c0,0,0,0,0,0C107.5,150.5,107.2,150.4,107.3,149.7
		C107.3,149.7,107.3,149.7,107.3,149.7z"/>
	<path class="st2" d="M278,360.9C278,360.9,278,360.9,278,360.9C278,360.9,278,360.9,278,360.9z"/>
	<path class="st0" d="M426.2,155.6c1.4-2.2,2.8-4.3,4.8-6.3c0.4,3.7-0.4,7-0.8,10.4c-1.5,14.3-3.1,28.5-4.6,42.7
		c-0.4,3.2-3.8,7.3-6.4,7.8c1-1.5,1-3.2,1.2-4.9C422.3,188.6,424.2,172.1,426.2,155.6z"/>
	<path class="st0" d="M415.7,207.4c-0.4,3.8-1,7.5-1.3,11.3c-0.2,3.7-1.7,6-4.4,7.6c-0.3-6.3,0.7-12.6,1.2-18.8
		c0.3-3.3,0.6-3.4,2.9-1.4C414.7,206.5,415.2,206.9,415.7,207.4z"/>
	<path class="st0" d="M400.3,237.6c-1.2-1.1-1.1-2.3-0.1-3.8C401.3,235.2,400.7,236.4,400.3,237.6z"/>
	<path class="st2" d="M435.5,209.6c0.1-0.7,0.1-1.5,1.2-1.8C436.6,208.8,436.3,209.4,435.5,209.6
		C435.5,209.6,435.5,209.6,435.5,209.6z"/>
	<path class="st2" d="M439.7,202.1c-0.4-1.1-0.4-2.2,1.1-3.7C440.2,200.2,439.9,201.1,439.7,202.1L439.7,202.1z"/>
	<path class="st2" d="M434.5,213c-0.1-1.3,0.3-2.4,1-3.3c0,0-0.1-0.1-0.1-0.1C435.5,210.9,434.9,211.8,434.5,213L434.5,213z"/>
	<path class="st2" d="M438.7,204.9c-0.3,0.1-0.6,0.3-0.9,0.4c0-0.2,0-0.3,0-0.5C438,204.8,438.3,204.9,438.7,204.9L438.7,204.9z"/>
	<path class="st2" d="M432.9,216.9c0-0.4,0-0.8,0-1.1c0.1,0,0.1,0,0.2,0C433,216.2,432.9,216.5,432.9,216.9
		C432.9,216.9,432.9,216.9,432.9,216.9z"/>
	<path class="st2" d="M442.6,195.1c-0.1,0-0.2,0-0.3,0c0-0.2,0-0.4,0-0.5c0,0,0.1,0,0.2,0C442.6,194.7,442.6,194.9,442.6,195.1z"/>
	<path class="st2" d="M438.6,204.9c0-0.2-0.1-0.4-0.1-0.6C438.6,204.5,438.6,204.7,438.6,204.9C438.7,204.9,438.6,204.9,438.6,204.9
		z"/>
	<path class="st2" d="M432.9,216.9c-0.1,0-0.1,0.1-0.2,0.1C432.8,217,432.8,217,432.9,216.9C432.9,216.9,432.9,216.9,432.9,216.9z"
		/>
	<path class="st2" d="M434.4,212.9c0,0.1-0.1,0.2-0.1,0.3C434.4,213.1,434.4,213,434.4,212.9C434.5,213,434.4,212.9,434.4,212.9z"/>
	<path class="st2" d="M441.5,197.2c-0.1,0.1-0.1,0.1-0.2,0.2c0-0.1-0.1-0.2-0.1-0.2c0-0.1,0.1-0.1,0.1-0.2
		C441.4,197,441.5,197.1,441.5,197.2z"/>
	<path class="st2" d="M439.6,202.1l-0.1-0.1C439.5,202,439.7,202.1,439.6,202.1C439.7,202.1,439.6,202.1,439.6,202.1z"/>
	<path class="st2" d="M366.1,96.6c-0.3-1.1,0.4-1.6,0.8-2.2c6.3-10.1,12.7-20.2,19-30.3c2.5-4,4.9-8.1,7.2-12.2
		c0.5-1,1.1-2.1,2.1-1.6c0.9,0.5,0.2,1.7,0.1,2.6c-0.3,2.7-1.7,4.7-2.9,6.8c-6.9,11.2-13.7,22.4-21,33.2
		C369,92.9,368.2,96,366.1,96.6z"/>
	<path class="st2" d="M343,65.7c-3.3-10.9-4.4-21.8-6-32.7c2.2,1.8,2.8,4.6,4.1,6.9c1.5,2.7,3,5.5,4.1,8.5
		C347.9,55.8,347.7,57,343,65.7z"/>
	<path class="st0" d="M366.1,96.6c2.1-0.5,2.9-3.7,5.3-3.7c-2.4,3.8-4.8,7.7-7.3,11.4c-0.4,0.7-0.6,2.4-2,1.3
		c-1.1-0.9-1.2-2.2-0.5-3.4c0.9-1.5,2.1-2.7,3.2-4C365.6,97.9,366,97.3,366.1,96.6L366.1,96.6z"/>
	<path class="st2" d="M366.1,96.5c-0.1,0.9-0.5,1.4-1.2,1.6C365.1,97.4,365.2,96.5,366.1,96.5z"/>
	<path class="st2" d="M293.6,176.3c2.2-4,6.1-4.8,9.2-7.2c3.5-2.6,7.5-4.1,10.8-7c1.3,1.2,2.5,2.7,3.9,3.6c2.1,1.3,1.3,2.1-0.1,3.1
		c-4.7,3.5-9.1,7.4-13.3,11.7c-0.9,0.9-2.6,1.7-0.3,3.2c0.6,0.4,0.5,1.4,0.4,2.1c-0.3,2.6,0.7,3.5,2.8,2.8c3.7-1.2,7.7-1.1,11.1-3.4
		c2.2,1.1,4.2-0.9,6.3-0.6c-0.7,6.5-3.1,12.5-4.6,18.8c-0.1,0.4-0.6,0.7-1,1.1c-3.8-3.2-7.6-6.4-11.4-9.6c-1.1-3-2.8-2-3.7-0.3
		c-1.6,3-2.5,6.4-1.5,10c0.1,1.3,0.8,2,1.8,2.3c2.9,0.8,5.1,2.8,7,5.4c1.6,2.1,3.5,2.8,5.6,0.7c0.5,4.7-2.5,11.8-5.9,13.9
		c-3.4,2.1-6.9,4.1-10.4,6.2c-1.6,1-3.9,1.3-3.9,4.3c0,0.5-0.5,0.9-0.7,0.6c-0.8-1.2-2.7-0.5-2.8-2.6c-0.1-1.9-0.4-3.9-0.6-5.8
		c0.8-5-0.3-9.8-0.9-14.7c-0.5-5.3-0.6-10.6-1.5-15.8c-0.9-5.4,2-7.8,4.8-10.5c0.8-0.7,1.8-1.1,2.2-2.4c0,0,0.1-0.1,0.1-0.1
		l-0.1,0.2c-0.6-0.5-1.9,0.5-1.3-1.9C296.5,181.5,295,178.7,293.6,176.3z M301.9,183.3l0.1-0.1l-0.1,0L301.9,183.3z"/>
	<path class="st2" d="M381.6,371.4c-0.6,2-1.1,3.2-2.7,4.4C379.7,374,380,372.6,381.6,371.4z"/>
	<path class="st1" d="M307.6,194.7c3.8,3.2,7.6,6.4,11.4,9.6c-1.4,2.6-2,5.5-2.3,8.5c-2.1,2.2-4,1.4-5.6-0.7c-1.9-2.6-4.1-4.6-7-5.4
		c-0.9-0.3-1.6-1-1.8-2.3c2.3-0.3,3.5-1.8,4-4.5C306.6,198.2,307.1,196.5,307.6,194.7z"/>
	<path class="st1" d="M324.5,184.5c-2.1-0.3-4.1,1.7-6.3,0.6c0.1-5.3,3.6-7.9,6.6-10.8c0.4-0.4,1-0.7,1.5-0.4c0.6,0.4,0.7,1,0.5,1.7
		C325.8,178.5,325.7,181.7,324.5,184.5z"/>
	<path class="st2" d="M326.5,199.6c-1.6,6.1-2.9,12.4-5,18.3C322.2,211.4,323.5,205.2,326.5,199.6z"/>
	<path class="st2" d="M327.1,197.7c-0.1,0.4-0.2,0.7-0.2,1.1C326.7,198.4,326.1,197.8,327.1,197.7z"/>
	<path class="st2" d="M321.6,217.9c-0.2,0.8-0.4,1.5-0.6,2.3C321,219.4,321.1,218.6,321.6,217.9z"/>
	<path class="st2" d="M333.3,146.2c0.6,0.1,0.4,0.6,0.5,1C333.3,147.1,332.8,147,333.3,146.2z"/>
	<path class="st2" d="M332.7,145.6c0.4,0,0.6,0.2,0.6,0.7C332.8,146.5,332.5,146.3,332.7,145.6z"/>
	<path class="st2" d="M321,220.1c0,0.2-0.1,0.4-0.2,0.6C320.9,220.5,321,220.3,321,220.1z"/>
	<path class="st2" d="M173.8,317.7c0.4,0.3,0.5,0.6,0.1,1c-0.2-0.2-0.3-0.5-0.5-0.7C173.5,317.9,173.6,317.8,173.8,317.7z"/>
	<path class="st2" d="M483.5,307.3c0-0.9,0.1-1.7,1.1-1.2c0,0,0,0,0,0C484.2,306.5,483.8,306.9,483.5,307.3
		C483.4,307.3,483.5,307.3,483.5,307.3z"/>
	<path class="st2" d="M481.7,308.6c-0.5-0.4-0.6,0-0.5,0.4c0,0.2,0.5,0.4,0.6,0.3C482.1,309.2,481.9,308.9,481.7,308.6
		C481.7,308.6,481.7,308.6,481.7,308.6z"/>
	<path class="st2" d="M482.3,307.9c0.4-0.2,0.8-0.4,1.1-0.6c0,0,0,0,0,0C483,307.5,482.7,307.7,482.3,307.9
		C482.3,307.9,482.3,307.9,482.3,307.9z"/>
	<path class="st2" d="M482.3,307.9c-0.4,0-0.6,0.2-0.6,0.7c0,0,0,0,0,0C481.9,308.4,482.1,308.1,482.3,307.9
		C482.3,307.9,482.3,307.9,482.3,307.9z"/>
	<path class="st2" d="M206.6,129.3c-0.5-0.1-0.6-0.6-0.7-1C206.1,128.6,206.3,128.9,206.6,129.3z"/>
	<path class="st0" d="M304.4,91.5c0.1,0.1,0.2,0.3,0.3,0.4c-0.1,0.1-0.3,0.2-0.4,0.2c0,0-0.2-0.2-0.1-0.2
		C304.2,91.8,304.3,91.7,304.4,91.5z"/>
	<path class="st0" d="M306.9,95.1c-0.1,0.2-0.1,0.3-0.2,0.5c-0.1-0.1-0.3-0.1-0.4-0.2c0-0.1,0.1-0.3,0.2-0.5
		C306.6,94.9,306.8,95,306.9,95.1z"/>
	<path class="st0" d="M308.1,97.2c-0.2,0-0.3,0-0.5,0.1c0-0.2,0-0.4,0-0.5c0,0,0.2-0.1,0.2,0C308,96.8,308,97,308.1,97.2z"/>
	<path class="st0" d="M305.4,93.5c0.1,0,0.1-0.1,0.2-0.1c0.1,0,0.1,0.1,0.2,0.2c-0.1,0.1-0.2,0.1-0.3,0.2
		C305.4,93.6,305.4,93.5,305.4,93.5z"/>
	<path class="st0" d="M513.5,70.2c-0.3,0.1-0.6,0.2-0.9,0.3c-0.4-2.8-0.6-5.7-0.1-9.2C513.4,64.7,513.5,67.4,513.5,70.2z"/>
	<path class="st0" d="M155.2,26.3c-0.1-0.1-0.1-0.1-0.1-0.2c0.1,0,0.1-0.1,0.2-0.1c0.1,0,0.1,0.1,0.1,0.2
		C155.3,26.2,155.3,26.2,155.2,26.3z"/>
	<path class="st0" d="M307.6,194.7c-0.4,1.8-1,3.5-1.3,5.3c-0.4,2.7-1.6,4.2-4,4.5c-1-3.7-0.1-7.1,1.5-10
		C304.8,192.7,306.5,191.7,307.6,194.7z"/>
	<polygon class="st0" points="301.9,183.3 301.8,183.2 301.9,183.2 	"/>
	<polygon class="st0" points="297.2,186.2 297.2,186 297.1,186.2 	"/>
</g>
</svg>
